<?xml version="1.0" encoding="UTF-8"?>
<!DOCTYPE svg PUBLIC "-//W3C//DTD SVG 1.1//EN" "http://www.w3.org/Graphics/SVG/1.1/DTD/svg11.dtd">
<svg xmlns="http://www.w3.org/2000/svg" version="1.1" width="1024px" height="1024px" style="shape-rendering:geometricPrecision; text-rendering:geometricPrecision; image-rendering:optimizeQuality; fill-rule:evenodd; clip-rule:evenodd" xmlns:xlink="http://www.w3.org/1999/xlink">
<g><path style="opacity:0.008" fill="#77ce54" d="M 804.5,-0.5 C 804.833,-0.5 805.167,-0.5 805.5,-0.5C 805.315,0.170143 804.981,0.170143 804.5,-0.5 Z"/></g>
<g><path style="opacity:0.014" fill="#79cc54" d="M 815.5,-0.5 C 816.167,-0.5 816.833,-0.5 817.5,-0.5C 816.833,0.833333 816.167,0.833333 815.5,-0.5 Z"/></g>
<g><path style="opacity:0.016" fill="#74cb54" d="M 868.5,-0.5 C 869.5,-0.5 870.5,-0.5 871.5,-0.5C 870.5,0.833333 869.5,0.833333 868.5,-0.5 Z"/></g>
<g><path style="opacity:0.008" fill="#77cb54" d="M 872.5,-0.5 C 872.833,-0.5 873.167,-0.5 873.5,-0.5C 873.315,0.170143 872.981,0.170143 872.5,-0.5 Z"/></g>
<g><path style="opacity:0.008" fill="#78cc55" d="M 877.5,-0.5 C 878.167,-0.5 878.833,-0.5 879.5,-0.5C 878.833,0.833333 878.167,0.833333 877.5,-0.5 Z"/></g>
<g><path style="opacity:0.004" fill="#78d054" d="M 811.5,0.5 C 812.833,1.16667 812.833,1.16667 811.5,0.5 Z"/></g>
<g><path style="opacity:0.999" fill="#7ad455" d="M 818.5,-0.5 C 819.833,-0.5 821.167,-0.5 822.5,-0.5C 824.167,0.833333 825.833,0.833333 827.5,-0.5C 838.833,-0.5 850.167,-0.5 861.5,-0.5C 862.5,0.833333 863.5,0.833333 864.5,-0.5C 864.833,-0.5 865.167,-0.5 865.5,-0.5C 865.918,0.221579 866.584,0.721579 867.5,1C 873.156,1.97464 878.823,2.80797 884.5,3.5C 900.401,7.59574 916.734,14.5957 933.5,24.5C 934.436,25.9744 935.77,26.9744 937.5,27.5C 939.531,29.5224 941.865,31.1891 944.5,32.5C 945.945,34.0627 947.611,35.396 949.5,36.5C 952.474,39.1379 955.474,41.8046 958.5,44.5C 962.195,48.5259 965.862,52.5259 969.5,56.5C 969.833,57.5 970.5,58.1667 971.5,58.5C 972.786,61.117 974.453,63.4504 976.5,65.5C 978.037,68.6016 980.037,71.2683 982.5,73.5C 981.167,73.8333 981.167,74.1667 982.5,74.5C 984.916,79.6665 987.582,84.6665 990.5,89.5C 991.038,91.1172 991.371,92.7839 991.5,94.5C 1003.05,125.573 1006.55,157.573 1002,190.5C 999.864,202.352 997.03,214.019 993.5,225.5C 987.778,241.954 978.778,256.288 966.5,268.5C 925.833,308.5 885.5,348.833 845.5,389.5C 838.298,395.503 830.298,396.67 821.5,393C 818.014,391.004 814.681,388.837 811.5,386.5C 802.618,376.277 793.284,366.277 783.5,356.5C 729.549,300.882 674.883,245.882 619.5,191.5C 618.833,191.167 618.167,190.833 617.5,190.5C 616.134,187.768 614.801,185.101 613.5,182.5C 611.842,174.957 612.842,167.791 616.5,161C 615.483,159.951 615.316,158.784 616,157.5C 616.333,158.167 616.667,158.833 617,159.5C 620.522,154.749 624.688,150.749 629.5,147.5C 660.883,117.117 691.55,86.1171 721.5,54.5C 725.637,49.61 729.97,44.9434 734.5,40.5C 741.206,35.1558 747.873,29.8225 754.5,24.5C 760.319,22.3216 764.986,19.3216 768.5,15.5C 769.086,15.7093 769.586,16.0426 770,16.5C 775.849,13.6555 781.682,10.9888 787.5,8.5C 798.303,5.21634 809.303,2.71634 820.5,1C 819.584,0.721579 818.918,0.221579 818.5,-0.5 Z"/></g>
<g><path style="opacity:0.008" fill="#78d158" d="M 881.5,1.5 C 882.833,2.16667 882.833,2.16667 881.5,1.5 Z"/></g>
<g><path style="opacity:0.004" fill="#7bd054" d="M 801.5,2.5 C 802.833,3.16667 802.833,3.16667 801.5,2.5 Z"/></g>
<g><path style="opacity:0.02" fill="#77ce56" d="M 884.5,3.5 C 885.786,1.6325 887.119,1.46583 888.5,3C 887.207,3.49001 885.873,3.65668 884.5,3.5 Z"/></g>
<g><path style="opacity:0.004" fill="#79d158" d="M 892.5,4.5 C 893.833,5.16667 893.833,5.16667 892.5,4.5 Z"/></g>
<g><path style="opacity:0.004" fill="#76cf56" d="M 894.5,4.5 C 895.833,5.16667 895.833,5.16667 894.5,4.5 Z"/></g>
<g><path style="opacity:0.004" fill="#76d056" d="M 780.5,7.5 C 781.833,8.16667 781.833,8.16667 780.5,7.5 Z"/></g>
<g><path style="opacity:0.016" fill="#79cf57" d="M 787.5,8.5 C 786.448,8.64945 785.448,8.48278 784.5,8C 785.749,7.25988 786.749,7.42654 787.5,8.5 Z"/></g>
<g><path style="opacity:0.004" fill="#79d056" d="M 777.5,10.5 C 778.833,11.1667 778.833,11.1667 777.5,10.5 Z"/></g>
<g><path style="opacity:0.006" fill="#79cc57" d="M 764.5,16.5 C 764.897,15.475 765.563,15.3083 766.5,16C 765.906,16.4643 765.239,16.631 764.5,16.5 Z"/></g>
<g><path style="opacity:0.004" fill="#78d055" d="M 761.5,18.5 C 762.833,19.1667 762.833,19.1667 761.5,18.5 Z"/></g>
<g><path style="opacity:0.01" fill="#78cd56" d="M 752.5,24.5 C 753.167,23.1667 753.833,23.1667 754.5,24.5C 753.833,24.5 753.167,24.5 752.5,24.5 Z"/></g>
<g><path style="opacity:0.012" fill="#76ce54" d="M 933.5,23.5 C 934.833,24.1667 934.833,24.1667 933.5,23.5 Z"/></g>
<g><path style="opacity:0.004" fill="#77cc55" d="M 752.5,24.5 C 751.833,25.1667 751.833,25.1667 752.5,24.5 Z"/></g>
<g><path style="opacity:0.004" fill="#77ce55" d="M 940.5,25.5 C 941.833,26.1667 941.833,26.1667 940.5,25.5 Z"/></g>
<g><path style="opacity:0.012" fill="#78ce56" d="M 937.5,26.5 C 938.833,27.1667 938.833,27.1667 937.5,26.5 Z"/></g>
<g><path style="opacity:0.012" fill="#79ca56" d="M 944.5,31.5 C 945.833,32.1667 945.833,32.1667 944.5,31.5 Z"/></g>
<g><path style="opacity:0.004" fill="#73ca57" d="M 950.5,31.5 C 951.833,32.1667 951.833,32.1667 950.5,31.5 Z"/></g>
<g><path style="opacity:0.004" fill="#72cb53" d="M 949.5,35.5 C 950.833,36.1667 950.833,36.1667 949.5,35.5 Z"/></g>
<g><path style="opacity:0.004" fill="#74c754" d="M 734.5,40.5 C 733.761,40.631 733.094,40.4643 732.5,40C 733.437,39.3083 734.103,39.475 734.5,40.5 Z"/></g>
<g><path style="opacity:0.004" fill="#73cb52" d="M 957.5,40.5 C 958.833,41.1667 958.833,41.1667 957.5,40.5 Z"/></g>
<g><path style="opacity:0.008" fill="#70ca50" d="M 958.5,43.5 C 959.833,44.1667 959.833,44.1667 958.5,43.5 Z"/></g>
<g><path style="opacity:0.004" fill="#73c752" d="M 727.5,44.5 C 728.833,45.1667 728.833,45.1667 727.5,44.5 Z"/></g>
<g><path style="opacity:0.004" fill="#73c952" d="M 724.5,47.5 C 725.833,48.1667 725.833,48.1667 724.5,47.5 Z"/></g>
<g><path style="opacity:0.004" fill="#73cb55" d="M 966.5,49.5 C 967.833,50.1667 967.833,50.1667 966.5,49.5 Z"/></g>
<g><path style="opacity:0.004" fill="#77ca54" d="M 719.5,50.5 C 720.833,51.1667 720.833,51.1667 719.5,50.5 Z"/></g>
<g><path style="opacity:0.008" fill="#75cb56" d="M 969.5,55.5 C 970.833,56.1667 970.833,56.1667 969.5,55.5 Z"/></g>
<g><path style="opacity:0.004" fill="#73cb56" d="M 971.5,57.5 C 972.833,58.1667 972.833,58.1667 971.5,57.5 Z"/></g>
<g><path style="opacity:0.004" fill="#74cb51" d="M 713.5,58.5 C 714.833,59.1667 714.833,59.1667 713.5,58.5 Z"/></g>
<g><path style="opacity:0.004" fill="#76cb53" d="M 705.5,63.5 C 706.833,64.1667 706.833,64.1667 705.5,63.5 Z"/></g>
<g><path style="opacity:0.004" fill="#73ca52" d="M 707.5,64.5 C 708.833,65.1667 708.833,65.1667 707.5,64.5 Z"/></g>
<g><path style="opacity:0.004" fill="#74c854" d="M 976.5,64.5 C 977.833,65.1667 977.833,65.1667 976.5,64.5 Z"/></g>
<g><path style="opacity:0.004" fill="#76cb54" d="M 705.5,66.5 C 706.833,67.1667 706.833,67.1667 705.5,66.5 Z"/></g>
<g><path style="opacity:0.004" fill="#74ce57" d="M 982.5,73.5 C 983.833,74.1667 983.833,74.1667 982.5,73.5 Z"/></g>
<g><path style="opacity:0.004" fill="#76ca54" d="M 697.5,74.5 C 698.833,75.1667 698.833,75.1667 697.5,74.5 Z"/></g>
<g><path style="opacity:0.008" fill="#74c950" d="M 694.5,80.5 C 693.833,79.1667 693.833,79.1667 694.5,80.5 Z"/></g>
<g><path style="opacity:0.004" fill="#71cb53" d="M 990.5,81.5 C 991.833,82.1667 991.833,82.1667 990.5,81.5 Z"/></g>
<g><path style="opacity:0.004" fill="#74c952" d="M 689.5,83.5 C 688.833,82.1667 688.833,82.1667 689.5,83.5 Z"/></g>
<g><path style="opacity:0.004" fill="#75cb4f" d="M 689.5,83.5 C 690.167,83.5 690.5,83.8333 690.5,84.5C 690.167,84.1667 689.833,83.8333 689.5,83.5 Z"/></g>
<g><path style="opacity:0.004" fill="#74c753" d="M 681.5,87.5 C 682.833,88.1667 682.833,88.1667 681.5,87.5 Z"/></g>
<g><path style="opacity:0.008" fill="#72c751" d="M 686.5,88.5 C 685.833,87.1667 685.833,87.1667 686.5,88.5 Z"/></g>
<g><path style="opacity:0.006" fill="#74c855" d="M 990.5,89.5 C 990.369,88.7611 990.536,88.0944 991,87.5C 991.692,88.4368 991.525,89.1034 990.5,89.5 Z"/></g>
<g><path style="opacity:0.008" fill="#72c954" d="M 681.5,90.5 C 682.833,91.1667 682.833,91.1667 681.5,90.5 Z"/></g>
<g><path style="opacity:0.016" fill="#74c951" d="M 681.5,91.5 C 680.833,92.1667 680.833,92.1667 681.5,91.5 Z"/></g>
<g><path style="opacity:0.004" fill="#75c952" d="M 680.5,94.5 C 679.833,93.1667 679.833,93.1667 680.5,94.5 Z"/></g>
<g><path style="opacity:0.012" fill="#76c753" d="M 676.5,95.5 C 677.833,96.1667 677.833,96.1667 676.5,95.5 Z"/></g>
<g><path style="opacity:0.004" fill="#72cb56" d="M 993.5,95.5 C 994.833,96.1667 994.833,96.1667 993.5,95.5 Z"/></g>
<g><path style="opacity:0.004" fill="#74ca55" d="M 996.5,96.5 C 997.833,97.1667 997.833,97.1667 996.5,96.5 Z"/></g>
<g><path style="opacity:0.008" fill="#77cc56" d="M 997.5,104.5 C 998.833,105.167 998.833,105.167 997.5,104.5 Z"/></g>
<g><path style="opacity:0.004" fill="#75c851" d="M 664.5,107.5 C 665.833,108.167 665.833,108.167 664.5,107.5 Z"/></g>
<g><path style="opacity:0.004" fill="#72c84f" d="M 664.5,110.5 C 663.833,109.167 663.833,109.167 664.5,110.5 Z"/></g>
<g><path style="opacity:0.008" fill="#74c953" d="M 657.5,114.5 C 658.833,115.167 658.833,115.167 657.5,114.5 Z"/></g>
<g><path style="opacity:0.004" fill="#72c851" d="M 654.5,120.5 C 653.833,119.167 653.833,119.167 654.5,120.5 Z"/></g>
<g><path style="opacity:0.957" fill="#64b23a" d="M 721.5,54.5 C 691.55,86.1171 660.883,117.117 629.5,147.5C 629.5,146.833 629.5,146.167 629.5,145.5C 635.167,140.5 640.5,135.167 645.5,129.5C 646.833,128.833 647.833,127.833 648.5,126.5C 650.833,124.833 652.833,122.833 654.5,120.5C 658.167,117.5 661.5,114.167 664.5,110.5C 670.167,105.5 675.5,100.167 680.5,94.5C 682.833,92.8333 684.833,90.8333 686.5,88.5C 688.167,87.5 689.5,86.1667 690.5,84.5C 692.167,83.5 693.5,82.1667 694.5,80.5C 703.5,71.8333 712.5,63.1667 721.5,54.5 Z"/></g>
<g><path style="opacity:0.016" fill="#74c853" d="M 648.5,126.5 C 647.833,125.167 647.833,125.167 648.5,126.5 Z"/></g>
<g><path style="opacity:0.004" fill="#76cf58" d="M 1003.5,127.5 C 1004.83,128.167 1004.83,128.167 1003.5,127.5 Z"/></g>
<g><path style="opacity:0.012" fill="#71c854" d="M 645.5,129.5 C 644.833,128.167 644.833,128.167 645.5,129.5 Z"/></g>
<g><path style="opacity:0.004" fill="#75ce58" d="M 1004.5,135.5 C 1005.83,136.167 1005.83,136.167 1004.5,135.5 Z"/></g>
<g><path style="opacity:0.004" fill="#000001" d="M 259.5,141.5 C 260.833,142.167 260.833,142.167 259.5,141.5 Z"/></g>
<g><path style="opacity:0.008" fill="#76cd56" d="M 1005.5,142.5 C 1006.83,143.167 1006.83,143.167 1005.5,142.5 Z"/></g>
<g><path style="opacity:0.004" fill="#73c855" d="M 629.5,145.5 C 628.833,144.167 628.833,144.167 629.5,145.5 Z"/></g>
<g><path style="opacity:0.004" fill="#78cf57" d="M 1006.5,153.5 C 1007.53,153.897 1007.69,154.563 1007,155.5C 1006.54,154.906 1006.37,154.239 1006.5,153.5 Z"/></g>
<g><path style="opacity:0.008" fill="#77cf57" d="M 1006.5,157.5 C 1007.53,157.897 1007.69,158.563 1007,159.5C 1006.54,158.906 1006.37,158.239 1006.5,157.5 Z"/></g>
<g><path style="opacity:0.004" fill="#76cf56" d="M 1006.5,161.5 C 1007.53,161.897 1007.69,162.563 1007,163.5C 1006.54,162.906 1006.37,162.239 1006.5,161.5 Z"/></g>
<g><path style="opacity:0.006" fill="#77cd57" d="M 1006.5,166.5 C 1007.62,168.288 1007.79,170.288 1007,172.5C 1006.5,170.527 1006.34,168.527 1006.5,166.5 Z"/></g>
<g><path style="opacity:0.008" fill="#77ca56" d="M 1006.5,174.5 C 1007.83,175.167 1007.83,175.167 1006.5,174.5 Z"/></g>
<g><path style="opacity:0.009" fill="#41b4d9" d="M 523.5,175.5 C 528.539,175.451 528.705,176.118 524,177.5C 523.536,176.906 523.369,176.239 523.5,175.5 Z"/></g>
<g><path style="opacity:0.012" fill="#44b8de" d="M 528.5,176.5 C 528.897,175.475 529.563,175.308 530.5,176C 529.906,176.464 529.239,176.631 528.5,176.5 Z"/></g>
<g><path style="opacity:0.004" fill="#47b5d8" d="M 536.5,175.5 C 537.833,176.167 537.833,176.167 536.5,175.5 Z"/></g>
<g><path style="opacity:0.008" fill="#43b6dc" d="M 521.5,178.5 C 520.833,177.167 520.833,177.167 521.5,178.5 Z"/></g>
<g><path style="opacity:0.004" fill="#46b8dc" d="M 536.5,177.5 C 537.833,178.167 537.833,178.167 536.5,177.5 Z"/></g>
<g><path style="opacity:0.004" fill="#47b8db" d="M 539.5,179.5 C 539.369,178.761 539.536,178.094 540,177.5C 540.692,178.437 540.525,179.103 539.5,179.5 Z"/></g>
<g><path style="opacity:0.999" fill="#3cc3fc" d="M 536.5,178.5 C 537.209,179.404 538.209,179.737 539.5,179.5C 543.306,181.91 546.973,184.577 550.5,187.5C 552.833,190.5 555.5,193.167 558.5,195.5C 559.167,196.833 559.833,198.167 560.5,199.5C 596.883,236.883 633.883,273.55 671.5,309.5C 672.5,309.833 673.167,310.5 673.5,311.5C 676.563,316.072 680.23,320.239 684.5,324C 682.349,323.613 680.349,322.947 678.5,322C 678.835,323.867 679.335,326.034 680,328.5C 680.333,328.833 680.667,329.167 681,329.5C 681.333,328.5 681.667,327.5 682,326.5C 682.684,328.359 683.684,330.026 685,331.5C 685.915,330.672 686.581,329.672 687,328.5C 687.667,329.5 687.667,330.5 687,331.5C 644.304,373.03 601.471,414.364 558.5,455.5C 544.726,442.057 531.06,428.724 517.5,415.5C 494.5,391.833 471.167,368.5 447.5,345.5C 446.145,343.071 444.478,341.738 442.5,341.5C 440.824,338.457 438.491,336.123 435.5,334.5C 434.488,333.128 433.488,331.795 432.5,330.5C 430.167,327.5 427.5,324.833 424.5,322.5C 423.167,320.5 421.5,318.833 419.5,317.5C 419.573,315.973 418.906,314.973 417.5,314.5C 417.672,313.508 417.338,312.842 416.5,312.5C 412.481,304.493 411.647,296.16 414,287.5C 416.102,282.278 418.936,277.611 422.5,273.5C 425.5,271.167 428.167,268.5 430.5,265.5C 432.167,264.5 433.5,263.167 434.5,261.5C 435.833,260.833 436.833,259.833 437.5,258.5C 438.167,258.5 438.5,258.167 438.5,257.5C 439.5,257.167 440.167,256.5 440.5,255.5C 443.167,254.167 445.167,252.167 446.5,249.5C 447.5,249.167 448.167,248.5 448.5,247.5C 450.833,245.833 452.833,243.833 454.5,241.5C 455.5,241.167 456.167,240.5 456.5,239.5C 458.5,238.833 459.833,237.5 460.5,235.5C 462.167,234.5 463.5,233.167 464.5,231.5C 466.833,229.833 468.833,227.833 470.5,225.5C 471.5,225.167 472.167,224.5 472.5,223.5C 474.5,222.167 476.167,220.5 477.5,218.5C 478.833,217.833 479.833,216.833 480.5,215.5C 484.833,211.833 488.833,207.833 492.5,203.5C 496.167,200.5 499.5,197.167 502.5,193.5C 507.996,187.326 514.329,182.326 521.5,178.5C 526.5,177.167 531.5,177.167 536.5,178.5 Z"/></g>
<g><path style="opacity:0.004" fill="#71ca6f" d="M 613.5,182.5 C 612.833,183.167 612.833,183.167 613.5,182.5 Z"/></g>
<g><path style="opacity:0.004" fill="#75cc56" d="M 1005.5,182.5 C 1006.83,183.167 1006.83,183.167 1005.5,182.5 Z"/></g>
<g><path style="opacity:0.012" fill="#48bcdf" d="M 549.5,183.5 C 550.833,184.167 550.833,184.167 549.5,183.5 Z"/></g>
<g><path style="opacity:0.004" fill="#6ec873" d="M 612.5,184.5 C 613.833,185.167 613.833,185.167 612.5,184.5 Z"/></g>
<g><path style="opacity:0.012" fill="#47c0e1" d="M 550.5,186.5 C 551.833,187.167 551.833,187.167 550.5,186.5 Z"/></g>
<g><path style="opacity:0.016" fill="#71cb66" d="M 617.5,190.5 C 616.833,191.167 616.833,191.167 617.5,190.5 Z"/></g>
<g><path style="opacity:0.008" fill="#44bce4" d="M 502.5,193.5 C 501.833,192.167 501.833,192.167 502.5,193.5 Z"/></g>
<g><path style="opacity:0.043" fill="#62b33e" d="M 619.5,191.5 C 674.883,245.882 729.549,300.882 783.5,356.5C 776.833,350.167 770.167,343.833 763.5,337.5C 761.167,334.5 758.5,331.833 755.5,329.5C 750.833,324.167 745.833,319.167 740.5,314.5C 738.167,311.5 735.5,308.833 732.5,306.5C 730.167,303.5 727.5,300.833 724.5,298.5C 722.5,295.833 720.167,293.5 717.5,291.5C 714.833,288.167 711.833,285.167 708.5,282.5C 708.167,281.5 707.5,280.833 706.5,280.5C 704.833,278.167 702.833,276.167 700.5,274.5C 692.833,266.167 684.833,258.167 676.5,250.5C 674.167,247.5 671.5,244.833 668.5,242.5C 666.167,239.5 663.5,236.833 660.5,234.5C 658.167,231.5 655.5,228.833 652.5,226.5C 647.5,220.833 642.167,215.5 636.5,210.5C 634.5,207.833 632.167,205.5 629.5,203.5C 625.767,199.773 622.434,195.773 619.5,191.5 Z"/></g>
<g><path style="opacity:0.012" fill="#4bc2e2" d="M 558.5,194.5 C 559.833,195.167 559.833,195.167 558.5,194.5 Z"/></g>
<g><path style="opacity:0.006" fill="#79d059" d="M 1003.5,194.5 C 1004.53,194.897 1004.69,195.563 1004,196.5C 1003.54,195.906 1003.37,195.239 1003.5,194.5 Z"/></g>
<g><path style="opacity:0.004" fill="#71cb76" d="M 618.5,196.5 C 619.833,197.167 619.833,197.167 618.5,196.5 Z"/></g>
<g><path style="opacity:1" fill="#64b23d" d="M 991.5,94.5 C 992.167,95.1667 992.833,95.8333 993.5,96.5C 1007.45,135.283 1009.12,174.617 998.5,214.5C 997.027,218.251 995.36,221.917 993.5,225.5C 997.03,214.019 999.864,202.352 1002,190.5C 1006.55,157.573 1003.05,125.573 991.5,94.5 Z"/></g>
<g><path style="opacity:0.004" fill="#4cc4e2" d="M 565.5,199.5 C 566.833,200.167 566.833,200.167 565.5,199.5 Z"/></g>
<g><path style="opacity:0.004" fill="#76ce56" d="M 1002.5,199.5 C 1003.83,200.167 1003.83,200.167 1002.5,199.5 Z"/></g>
<g><path style="opacity:0.004" fill="#43bee7" d="M 492.5,203.5 C 491.833,202.167 491.833,202.167 492.5,203.5 Z"/></g>
<g><path style="opacity:0.012" fill="#4dc6e3" d="M 566.5,202.5 C 567.833,203.167 567.833,203.167 566.5,202.5 Z"/></g>
<g><path style="opacity:0.004" fill="#71cb69" d="M 629.5,203.5 C 628.833,204.167 628.833,204.167 629.5,203.5 Z"/></g>
<g><path style="opacity:0.004" fill="#74ce72" d="M 627.5,205.5 C 628.833,206.167 628.833,206.167 627.5,205.5 Z"/></g>
<g><path style="opacity:0.004" fill="#72ce6e" d="M 630.5,206.5 C 631.833,207.167 631.833,207.167 630.5,206.5 Z"/></g>
<g><path style="opacity:0.004" fill="#41b7e2" d="M 481.5,207.5 C 482.833,208.167 482.833,208.167 481.5,207.5 Z"/></g>
<g><path style="opacity:0.008" fill="#4bc4e4" d="M 571.5,208.5 C 571.56,207.957 571.893,207.624 572.5,207.5C 573.773,208.257 573.773,208.923 572.5,209.5C 572.5,208.833 572.167,208.5 571.5,208.5 Z"/></g>
<g><path style="opacity:0.004" fill="#42bbe5" d="M 483.5,208.5 C 484.833,209.167 484.833,209.167 483.5,208.5 Z"/></g>
<g><path style="opacity:0.004" fill="#44b9e5" d="M 479.5,210.5 C 480.833,211.167 480.833,211.167 479.5,210.5 Z"/></g>
<g><path style="opacity:0.016" fill="#4ac4e7" d="M 574.5,210.5 C 575.833,211.167 575.833,211.167 574.5,210.5 Z"/></g>
<g><path style="opacity:0.008" fill="#73cb6d" d="M 636.5,210.5 C 635.833,211.167 635.833,211.167 636.5,210.5 Z"/></g>
<g><path style="opacity:0.004" fill="#74cc70" d="M 635.5,213.5 C 636.833,214.167 636.833,214.167 635.5,213.5 Z"/></g>
<g><path style="opacity:0.008" fill="#42bbe7" d="M 480.5,215.5 C 479.833,214.167 479.833,214.167 480.5,215.5 Z"/></g>
<g><path style="opacity:0.004" fill="#75c855" d="M 998.5,214.5 C 999.833,215.167 999.833,215.167 998.5,214.5 Z"/></g>
<g><path style="opacity:0.004" fill="#4fc5e0" d="M 581.5,215.5 C 582.833,216.167 582.833,216.167 581.5,215.5 Z"/></g>
<g><path style="opacity:0.075" fill="#3fb5df" d="M 560.5,199.5 C 562.754,200.415 564.754,201.748 566.5,203.5C 567.833,205.5 569.5,207.167 571.5,208.5C 572.167,208.5 572.5,208.833 572.5,209.5C 572.833,210.5 573.5,211.167 574.5,211.5C 577.167,214.167 579.833,216.833 582.5,219.5C 584.833,222.5 587.5,225.167 590.5,227.5C 592.833,230.5 595.5,233.167 598.5,235.5C 600.167,237.833 602.167,239.833 604.5,241.5C 604.833,242.5 605.5,243.167 606.5,243.5C 608.833,246.5 611.5,249.167 614.5,251.5C 616.833,254.5 619.5,257.167 622.5,259.5C 624.167,261.833 626.167,263.833 628.5,265.5C 628.833,266.5 629.5,267.167 630.5,267.5C 632.833,270.5 635.5,273.167 638.5,275.5C 640.833,278.5 643.5,281.167 646.5,283.5C 648.833,286.5 651.5,289.167 654.5,291.5C 656.167,293.833 658.167,295.833 660.5,297.5C 660.833,298.5 661.5,299.167 662.5,299.5C 664.833,302.5 667.5,305.167 670.5,307.5C 670.833,308.167 671.167,308.833 671.5,309.5C 633.883,273.55 596.883,236.883 560.5,199.5 Z"/></g>
<g><path style="opacity:0.004" fill="#42bbe5" d="M 477.5,218.5 C 476.833,217.167 476.833,217.167 477.5,218.5 Z"/></g>
<g><path style="opacity:0.008" fill="#4ec6e2" d="M 582.5,218.5 C 583.833,219.167 583.833,219.167 582.5,218.5 Z"/></g>
<g><path style="opacity:0.004" fill="#77cb56" d="M 997.5,218.5 C 998.525,218.897 998.692,219.563 998,220.5C 997.536,219.906 997.369,219.239 997.5,218.5 Z"/></g>
<g><path style="opacity:0.008" fill="#45bce9" d="M 472.5,223.5 C 471.833,222.167 471.833,222.167 472.5,223.5 Z"/></g>
<g><path style="opacity:0.008" fill="#78ce56" d="M 996.5,222.5 C 997.833,223.167 997.833,223.167 996.5,222.5 Z"/></g>
<g><path style="opacity:0.004" fill="#4ec6e5" d="M 588.5,223.5 C 589.833,224.167 589.833,224.167 588.5,223.5 Z"/></g>
<g><path style="opacity:0.012" fill="#43bbe6" d="M 470.5,225.5 C 469.833,224.167 469.833,224.167 470.5,225.5 Z"/></g>
<g><path style="opacity:0.004" fill="#72cc6e" d="M 647.5,223.5 C 648.525,223.897 648.692,224.563 648,225.5C 647.536,224.906 647.369,224.239 647.5,223.5 Z"/></g>
<g><path style="opacity:0.02" fill="#4dc7e3" d="M 590.5,227.5 C 590.369,226.761 590.536,226.094 591,225.5C 591.692,226.437 591.525,227.103 590.5,227.5 Z"/></g>
<g><path style="opacity:0.004" fill="#71cb71" d="M 647.5,227.5 C 647.897,226.475 648.563,226.308 649.5,227C 648.906,227.464 648.239,227.631 647.5,227.5 Z"/></g>
<g><path style="opacity:0.008" fill="#73cd6c" d="M 652.5,226.5 C 651.833,227.167 651.833,227.167 652.5,226.5 Z"/></g>
<g><path style="opacity:0.008" fill="#72cc6b" d="M 652.5,228.5 C 653.833,229.167 653.833,229.167 652.5,228.5 Z"/></g>
<g><path style="opacity:0.008" fill="#73c953" d="M 993.5,229.5 C 994.833,230.167 994.833,230.167 993.5,229.5 Z"/></g>
<g><path style="opacity:0.004" fill="#44b9e4" d="M 464.5,231.5 C 463.833,230.167 463.833,230.167 464.5,231.5 Z"/></g>
<g><path style="opacity:0.004" fill="#71cc70" d="M 652.5,231.5 C 652.897,230.475 653.563,230.308 654.5,231C 653.906,231.464 653.239,231.631 652.5,231.5 Z"/></g>
<g><path style="opacity:0.004" fill="#44bce6" d="M 459.5,232.5 C 460.833,233.167 460.833,233.167 459.5,232.5 Z"/></g>
<g><path style="opacity:0.004" fill="#44bde9" d="M 460.5,235.5 C 459.833,234.167 459.833,234.167 460.5,235.5 Z"/></g>
<g><path style="opacity:0.012" fill="#4ec7e6" d="M 598.5,234.5 C 599.833,235.167 599.833,235.167 598.5,234.5 Z"/></g>
<g><path style="opacity:0.004" fill="#72ce68" d="M 660.5,234.5 C 659.833,235.167 659.833,235.167 660.5,234.5 Z"/></g>
<g><path style="opacity:0.004" fill="#73cf70" d="M 659.5,237.5 C 658.833,236.167 658.833,236.167 659.5,237.5 Z"/></g>
<g><path style="opacity:0.012" fill="#72ce70" d="M 659.5,237.5 C 661.353,236.386 661.853,237.052 661,239.5C 660.283,238.956 659.783,238.289 659.5,237.5 Z"/></g>
<g><path style="opacity:0.004" fill="#42b8e5" d="M 456.5,239.5 C 455.833,238.167 455.833,238.167 456.5,239.5 Z"/></g>
<g><path style="opacity:0.008" fill="#43bbe7" d="M 454.5,241.5 C 453.833,240.167 453.833,240.167 454.5,241.5 Z"/></g>
<g><path style="opacity:0.012" fill="#50c7e3" d="M 604.5,240.5 C 605.833,241.167 605.833,241.167 604.5,240.5 Z"/></g>
<g><path style="opacity:0.004" fill="#76ca55" d="M 987.5,241.5 C 988.833,242.167 988.833,242.167 987.5,241.5 Z"/></g>
<g><path style="opacity:0.008" fill="#4dc6e3" d="M 606.5,243.5 C 606.369,242.761 606.536,242.094 607,241.5C 607.692,242.437 607.525,243.103 606.5,243.5 Z"/></g>
<g><path style="opacity:0.012" fill="#71ce70" d="M 665.5,242.5 C 666.833,243.167 666.833,243.167 665.5,242.5 Z"/></g>
<g><path style="opacity:0.004" fill="#70ce6d" d="M 668.5,242.5 C 667.833,243.167 667.833,243.167 668.5,242.5 Z"/></g>
<g><path style="opacity:0.008" fill="#46b9e4" d="M 448.5,247.5 C 447.833,246.167 447.833,246.167 448.5,247.5 Z"/></g>
<g><path style="opacity:0.004" fill="#45b6de" d="M 441.5,247.5 C 442.833,248.167 442.833,248.167 441.5,247.5 Z"/></g>
<g><path style="opacity:0.004" fill="#4ec6e0" d="M 612.5,247.5 C 613.833,248.167 613.833,248.167 612.5,247.5 Z"/></g>
<g><path style="opacity:0.012" fill="#43bbe4" d="M 446.5,249.5 C 445.475,249.103 445.308,248.437 446,247.5C 446.464,248.094 446.631,248.761 446.5,249.5 Z"/></g>
<g><path style="opacity:0.024" fill="#4ec6e4" d="M 614.5,250.5 C 615.833,251.167 615.833,251.167 614.5,250.5 Z"/></g>
<g><path style="opacity:0.012" fill="#72ce69" d="M 676.5,250.5 C 675.833,251.167 675.833,251.167 676.5,250.5 Z"/></g>
<g><path style="opacity:0.004" fill="#48b9e3" d="M 439.5,252.5 C 440.833,253.167 440.833,253.167 439.5,252.5 Z"/></g>
<g><path style="opacity:0.008" fill="#47b7e2" d="M 440.5,255.5 C 439.833,254.167 439.833,254.167 440.5,255.5 Z"/></g>
<g><path style="opacity:0.004" fill="#72cc6e" d="M 679.5,255.5 C 680.833,256.167 680.833,256.167 679.5,255.5 Z"/></g>
<g><path style="opacity:0.005" fill="#46bae2" d="M 438.5,257.5 C 437.833,257.5 437.5,257.833 437.5,258.5C 436.957,258.44 436.624,258.107 436.5,257.5C 437.257,256.227 437.923,256.227 438.5,257.5 Z"/></g>
<g><path style="opacity:0.012" fill="#4ec6e2" d="M 622.5,258.5 C 623.833,259.167 623.833,259.167 622.5,258.5 Z"/></g>
<g><path style="opacity:0.004" fill="#49bae3" d="M 434.5,261.5 C 433.833,260.167 433.833,260.167 434.5,261.5 Z"/></g>
<g><path style="opacity:0.004" fill="#72ce71" d="M 683.5,263.5 C 683.897,262.475 684.563,262.308 685.5,263C 684.906,263.464 684.239,263.631 683.5,263.5 Z"/></g>
<g><path style="opacity:0.004" fill="#46bae1" d="M 430.5,265.5 C 429.833,264.167 429.833,264.167 430.5,265.5 Z"/></g>
<g><path style="opacity:0.004" fill="#4ec7dd" d="M 628.5,264.5 C 629.833,265.167 629.833,265.167 628.5,264.5 Z"/></g>
<g><path style="opacity:0.027" fill="#4cc3df" d="M 630.5,266.5 C 631.833,267.167 631.833,267.167 630.5,266.5 Z"/></g>
<g><path style="opacity:0.008" fill="#75cf6b" d="M 693.5,269.5 C 694.833,270.167 694.833,270.167 693.5,269.5 Z"/></g>
<g><path style="opacity:0.016" fill="#75c74f" d="M 966.5,270.5 C 967.833,271.167 967.833,271.167 966.5,270.5 Z"/></g>
<g><path style="opacity:0.004" fill="#49b8dc" d="M 422.5,273.5 C 421.833,272.167 421.833,272.167 422.5,273.5 Z"/></g>
<g><path style="opacity:0.016" fill="#4fc6df" d="M 638.5,274.5 C 639.833,275.167 639.833,275.167 638.5,274.5 Z"/></g>
<g><path style="opacity:0.004" fill="#72ce67" d="M 700.5,274.5 C 699.833,275.167 699.833,275.167 700.5,274.5 Z"/></g>
<g><path style="opacity:0.004" fill="#72d26d" d="M 700.5,277.5 C 701.833,278.167 701.833,278.167 700.5,277.5 Z"/></g>
<g><path style="opacity:0.016" fill="#78c74f" d="M 958.5,278.5 C 959.833,279.167 959.833,279.167 958.5,278.5 Z"/></g>
<g><path style="opacity:0.004" fill="#72ce69" d="M 706.5,280.5 C 705.833,281.167 705.833,281.167 706.5,280.5 Z"/></g>
<g><path style="opacity:0.008" fill="#4fc5e0" d="M 646.5,282.5 C 647.833,283.167 647.833,283.167 646.5,282.5 Z"/></g>
<g><path style="opacity:0.004" fill="#72d16e" d="M 705.5,282.5 C 706.833,283.167 706.833,283.167 705.5,282.5 Z"/></g>
<g><path style="opacity:0.008" fill="#6fcd68" d="M 708.5,282.5 C 707.833,283.167 707.833,283.167 708.5,282.5 Z"/></g>
<g><path style="opacity:0.008" fill="#72cd69" d="M 708.5,284.5 C 709.833,285.167 709.833,285.167 708.5,284.5 Z"/></g>
<g><path style="opacity:0.004" fill="#73ce6e" d="M 708.5,286.5 C 709.833,287.167 709.833,287.167 708.5,286.5 Z"/></g>
<g><path style="opacity:0.02" fill="#7bc952" d="M 950.5,286.5 C 951.833,287.167 951.833,287.167 950.5,286.5 Z"/></g>
<g><path style="opacity:0.008" fill="#50c7dd" d="M 653.5,287.5 C 654.833,288.167 654.833,288.167 653.5,287.5 Z"/></g>
<g><path style="opacity:0.004" fill="#50c5df" d="M 654.5,290.5 C 655.833,291.167 655.833,291.167 654.5,290.5 Z"/></g>
<g><path style="opacity:0.004" fill="#72cc68" d="M 717.5,291.5 C 717.103,292.525 716.437,292.692 715.5,292C 716.094,291.536 716.761,291.369 717.5,291.5 Z"/></g>
<g><path style="opacity:0.004" fill="#73cf69" d="M 717.5,293.5 C 718.525,293.897 718.692,294.563 718,295.5C 717.536,294.906 717.369,294.239 717.5,293.5 Z"/></g>
<g><path style="opacity:0.024" fill="#77c651" d="M 942.5,294.5 C 943.833,295.167 943.833,295.167 942.5,294.5 Z"/></g>
<g><path style="opacity:0.006" fill="#4fc4dc" d="M 660.5,297.5 C 660.639,295.663 661.306,295.33 662.5,296.5C 662.043,297.298 661.376,297.631 660.5,297.5 Z"/></g>
<g><path style="opacity:0.012" fill="#4fc3e0" d="M 662.5,298.5 C 663.833,299.167 663.833,299.167 662.5,298.5 Z"/></g>
<g><path style="opacity:0.008" fill="#71cc6a" d="M 724.5,298.5 C 723.833,299.167 723.833,299.167 724.5,298.5 Z"/></g>
<g><path style="opacity:0.004" fill="#53b3ce" d="M 410.5,300.5 C 411.833,301.167 411.833,301.167 410.5,300.5 Z"/></g>
<g><path style="opacity:0.008" fill="#54b5cf" d="M 411.5,302.5 C 412.833,303.167 412.833,303.167 411.5,302.5 Z"/></g>
<g><path style="opacity:0.012" fill="#77c552" d="M 934.5,302.5 C 935.833,303.167 935.833,303.167 934.5,302.5 Z"/></g>
<g><path style="opacity:0.004" fill="#4dc2de" d="M 669.5,304.5 C 670.833,305.167 670.833,305.167 669.5,304.5 Z"/></g>
<g><path style="opacity:0.016" fill="#4dc5e4" d="M 670.5,306.5 C 671.833,307.167 671.833,307.167 670.5,306.5 Z"/></g>
<g><path style="opacity:0.008" fill="#72cc68" d="M 732.5,306.5 C 731.833,307.167 731.833,307.167 732.5,306.5 Z"/></g>
<g><path style="opacity:0.004" fill="#71ce6e" d="M 730.5,309.5 C 731.833,310.167 731.833,310.167 730.5,309.5 Z"/></g>
<g><path style="opacity:0.004" fill="#79c451" d="M 926.5,310.5 C 927.833,311.167 927.833,311.167 926.5,310.5 Z"/></g>
<g><path style="opacity:0.012" fill="#4cc3e0" d="M 675.5,312.5 C 675.897,311.475 676.563,311.308 677.5,312C 676.906,312.464 676.239,312.631 675.5,312.5 Z"/></g>
<g><path style="opacity:0.008" fill="#58b3c9" d="M 416.5,312.5 C 415.833,313.167 415.833,313.167 416.5,312.5 Z"/></g>
<g><path style="opacity:0.004" fill="#73c852" d="M 924.5,312.5 C 925.833,313.167 925.833,313.167 924.5,312.5 Z"/></g>
<g><path style="opacity:0.01" fill="#4cc3de" d="M 677.5,314.5 C 677.56,313.957 677.893,313.624 678.5,313.5C 679.773,314.257 679.773,314.923 678.5,315.5C 678.5,314.833 678.167,314.5 677.5,314.5 Z"/></g>
<g><path style="opacity:0.012" fill="#5ab6ca" d="M 417.5,314.5 C 416.833,315.167 416.833,315.167 417.5,314.5 Z"/></g>
<g><path style="opacity:0.004" fill="#72cc67" d="M 740.5,314.5 C 739.833,315.167 739.833,315.167 740.5,314.5 Z"/></g>
<g><path style="opacity:0.004" fill="#70cf71" d="M 735.5,316.5 C 736.833,317.167 736.833,317.167 735.5,316.5 Z"/></g>
<g><path style="opacity:0.004" fill="#5eb6c9" d="M 419.5,317.5 C 418.833,318.167 418.833,318.167 419.5,317.5 Z"/></g>
<g><path style="opacity:0.004" fill="#72ce6e" d="M 739.5,318.5 C 739.897,317.475 740.563,317.308 741.5,318C 740.906,318.464 740.239,318.631 739.5,318.5 Z"/></g>
<g><path style="opacity:0.102" fill="#63b03d" d="M 966.5,268.5 C 966.5,269.167 966.5,269.833 966.5,270.5C 963.5,272.833 960.833,275.5 958.5,278.5C 955.5,280.833 952.833,283.5 950.5,286.5C 947.5,288.833 944.833,291.5 942.5,294.5C 939.5,296.833 936.833,299.5 934.5,302.5C 931.5,304.833 928.833,307.5 926.5,310.5C 925.5,310.833 924.833,311.5 924.5,312.5C 922.167,314.167 920.167,316.167 918.5,318.5C 915.5,320.833 912.833,323.5 910.5,326.5C 907.5,328.833 904.833,331.5 902.5,334.5C 899.5,336.833 896.833,339.5 894.5,342.5C 891.5,344.833 888.833,347.5 886.5,350.5C 883.5,352.833 880.833,355.5 878.5,358.5C 875.5,360.833 872.833,363.5 870.5,366.5C 867.5,368.833 864.833,371.5 862.5,374.5C 859.5,376.833 856.833,379.5 854.5,382.5C 851.767,385.239 848.767,387.573 845.5,389.5C 885.5,348.833 925.833,308.5 966.5,268.5 Z"/></g>
<g><path style="opacity:0.024" fill="#79c656" d="M 918.5,318.5 C 919.833,319.167 919.833,319.167 918.5,318.5 Z"/></g>
<g><path style="opacity:0.005" fill="#4abedc" d="M 683.5,320.5 C 684.497,319.287 685.497,319.454 686.5,321C 685.906,321.464 685.239,321.631 684.5,321.5C 684.5,320.833 684.167,320.5 683.5,320.5 Z"/></g>
<g><path style="opacity:0.012" fill="#65b6c6" d="M 424.5,322.5 C 423.833,323.167 423.833,323.167 424.5,322.5 Z"/></g>
<g><path style="opacity:0.004" fill="#74cd70" d="M 744.5,324.5 C 745.833,325.167 745.833,325.167 744.5,324.5 Z"/></g>
<g><path style="opacity:0.004" fill="#73cc6a" d="M 749.5,325.5 C 750.833,326.167 750.833,326.167 749.5,325.5 Z"/></g>
<g><path style="opacity:0.016" fill="#77c552" d="M 910.5,326.5 C 911.833,327.167 911.833,327.167 910.5,326.5 Z"/></g>
<g><path style="opacity:0.004" fill="#49bfdb" d="M 691.5,327.5 C 692.833,328.167 692.833,328.167 691.5,327.5 Z"/></g>
<g><path style="opacity:0.004" fill="#71cc64" d="M 755.5,329.5 C 754.833,330.167 754.833,330.167 755.5,329.5 Z"/></g>
<g><path style="opacity:0.008" fill="#6cb8bd" d="M 432.5,330.5 C 431.833,331.167 431.833,331.167 432.5,330.5 Z"/></g>
<g><path style="opacity:0.999" fill="#34b5ee" d="M 673.5,311.5 C 674.167,311.833 674.833,312.167 675.5,312.5C 675.833,313.5 676.5,314.167 677.5,314.5C 678.167,314.5 678.5,314.833 678.5,315.5C 679.833,317.5 681.5,319.167 683.5,320.5C 684.167,320.5 684.5,320.833 684.5,321.5C 686.5,324.167 688.833,326.5 691.5,328.5C 697.25,335.192 703.584,341.192 710.5,346.5C 726.01,362.677 742.01,378.677 758.5,394.5C 780.187,416.354 801.687,438.354 823,460.5C 827.975,469.715 827.642,478.715 822,487.5C 819.665,490.665 817.165,493.665 814.5,496.5C 784.636,525.028 754.969,554.028 725.5,583.5C 713.63,592.903 701.296,593.57 688.5,585.5C 685.367,582.531 682.367,579.365 679.5,576C 677.833,575.667 676.167,575.333 674.5,575C 675.956,574.577 676.456,573.744 676,572.5C 674,570.5 672,568.5 670,566.5C 667.871,567.863 667.371,567.529 668.5,565.5C 667.23,564.712 666.23,563.712 665.5,562.5C 643.908,540.242 621.908,518.242 599.5,496.5C 585.5,483.167 571.833,469.5 558.5,455.5C 601.471,414.364 644.304,373.03 687,331.5C 687.667,330.5 687.667,329.5 687,328.5C 686.581,329.672 685.915,330.672 685,331.5C 683.684,330.026 682.684,328.359 682,326.5C 681.667,327.5 681.333,328.5 681,329.5C 680.667,329.167 680.333,328.833 680,328.5C 679.335,326.034 678.835,323.867 678.5,322C 680.349,322.947 682.349,323.613 684.5,324C 680.23,320.239 676.563,316.072 673.5,311.5 Z"/></g>
<g><path style="opacity:0.008" fill="#71b6b9" d="M 435.5,334.5 C 434.833,335.167 434.833,335.167 435.5,334.5 Z"/></g>
<g><path style="opacity:0.004" fill="#74ce6d" d="M 756.5,334.5 C 757.833,335.167 757.833,335.167 756.5,334.5 Z"/></g>
<g><path style="opacity:0.016" fill="#76c44f" d="M 902.5,334.5 C 903.833,335.167 903.833,335.167 902.5,334.5 Z"/></g>
<g><path style="opacity:0.016" fill="#71cb69" d="M 763.5,337.5 C 762.833,338.167 762.833,338.167 763.5,337.5 Z"/></g>
<g><path style="opacity:0.008" fill="#74cb6f" d="M 759.5,340.5 C 760.833,341.167 760.833,341.167 759.5,340.5 Z"/></g>
<g><path style="opacity:0.004" fill="#85b2a6" d="M 442.5,341.5 C 441.833,342.167 441.833,342.167 442.5,341.5 Z"/></g>
<g><path style="opacity:0.004" fill="#8ab59f" d="M 439.5,342.5 C 440.833,343.167 440.833,343.167 439.5,342.5 Z"/></g>
<g><path style="opacity:0.012" fill="#75c150" d="M 894.5,342.5 C 895.833,343.167 895.833,343.167 894.5,342.5 Z"/></g>
<g><path style="opacity:0.004" fill="#50c0c3" d="M 718.5,344.5 C 719.833,345.167 719.833,345.167 718.5,344.5 Z"/></g>
<g><path style="opacity:0.008" fill="#49bad6" d="M 710.5,345.5 C 711.833,346.167 711.833,346.167 710.5,345.5 Z"/></g>
<g><path style="opacity:0.012" fill="#b9b070" d="M 445.5,349.5 C 444.833,348.167 444.833,348.167 445.5,349.5 Z"/></g>
<g><path style="opacity:0.02" fill="#77c652" d="M 886.5,350.5 C 887.833,351.167 887.833,351.167 886.5,350.5 Z"/></g>
<g><path style="opacity:0.999" fill="#feac20" d="M 329.5,602.5 C 284.643,646.857 239.809,691.524 195,736.5C 187.444,746.282 182.61,757.282 180.5,769.5C 179.371,767.372 179.204,765.039 180,762.5C 181.526,757.319 183.36,752.319 185.5,747.5C 188.748,742.403 192.248,737.403 196,732.5C 222.21,707.114 248.21,681.447 274,655.5C 276.131,652.898 277.965,650.232 279.5,647.5C 280.552,647.649 281.552,647.483 282.5,647C 289.731,639.858 296.731,632.525 303.5,625C 291.5,624.333 279.5,624.333 267.5,625C 263.975,625.179 260.641,625.679 257.5,626.5C 229.813,626.585 202.147,626.419 174.5,626C 158.43,640.947 142.93,656.447 128,672.5C 113.774,688.618 103.44,706.951 97,727.5C 94.2478,745.438 91.9145,763.438 90,781.5C 85.0605,806.695 75.7272,830.028 62,851.5C 61.6667,852.833 61.3333,854.167 61,855.5C 57.3349,860.341 53.8349,865.341 50.5,870.5C 49.6431,871.425 48.6431,872.092 47.5,872.5C 50.5,867.167 53.5,861.833 56.5,856.5C 59.9834,852.68 62.6501,848.347 64.5,843.5C 67.9266,838.984 70.5932,833.984 72.5,828.5C 81.5838,811.475 86.9172,793.475 88.5,774.5C 90.2112,760.962 92.0445,747.295 94,733.5C 96.4158,723.084 99.9158,713.084 104.5,703.5C 107.559,699.096 110.225,694.429 112.5,689.5C 129.295,668.194 147.795,648.194 168,629.5C 168.464,628.906 168.631,628.239 168.5,627.5C 183.114,613.555 197.78,599.555 212.5,585.5C 213.473,585.013 214.473,584.513 215.5,584C 252.477,547.023 289.644,509.856 327,472.5C 335.04,463.963 342.874,455.296 350.5,446.5C 382.218,415.283 413.884,383.783 445.5,352C 446.833,351.333 448.167,351.333 449.5,352C 450.833,352.667 450.833,353.333 449.5,354C 452.544,354.359 452.878,355.026 450.5,356C 450.866,357.832 452.199,359.332 454.5,360.5C 454.167,362.5 453.833,364.5 453.5,366.5C 454.956,366.322 456.289,367.156 457.5,369C 455,369.833 454.833,371 457,372.5C 457.333,372.167 457.667,371.833 458,371.5C 458.625,374.706 460.291,375.706 463,374.5C 464.539,375.546 464.705,376.879 463.5,378.5C 464.304,380.136 465.304,381.636 466.5,383C 463.972,383.669 463.972,384.502 466.5,385.5C 467.82,383.73 469.32,383.397 471,384.5C 471.478,386.584 472.311,388.417 473.5,390C 473.14,391.652 472.807,393.318 472.5,395C 473.579,395.956 474.745,396.789 476,397.5C 477.444,395.845 479.278,395.178 481.5,395.5C 481.34,397.199 481.506,398.866 482,400.5C 483.049,399.483 484.216,399.316 485.5,400C 487.788,402.743 489.955,405.577 492,408.5C 495.357,407.258 495.19,406.424 491.5,406C 493.605,404.665 494.271,402.998 493.5,401C 494.5,399 495.5,399 496.5,401C 495.294,404.112 495.294,407.278 496.5,410.5C 495.398,412.889 493.731,414.723 491.5,416C 493.301,416.317 493.634,416.984 492.5,418C 494.612,418.906 495.445,420.406 495,422.5C 494.577,421.044 493.744,420.544 492.5,421C 492.665,422.117 492.998,423.284 493.5,424.5C 492.092,426.436 490.759,426.602 489.5,425C 491.512,423.848 491.678,422.682 490,421.5C 488.984,422.634 488.317,422.301 488,420.5C 487.316,421.784 487.483,422.951 488.5,424C 486.009,424.626 486.009,425.459 488.5,426.5C 487.833,426.833 487.167,427.167 486.5,427.5C 490.361,428.598 490.361,429.431 486.5,430C 487.273,433.401 487.607,436.734 487.5,440C 486.38,441.737 485.38,443.571 484.5,445.5C 470.885,457.613 457.718,470.28 445,483.5C 444.517,484.448 444.351,485.448 444.5,486.5C 443.448,486.351 442.448,486.517 441.5,487C 439.983,488.685 438.316,490.185 436.5,491.5C 418.959,510.173 401.126,528.506 383,546.5C 382.086,545.346 381.253,545.513 380.5,547C 380.833,547.333 381.167,547.667 381.5,548C 372.044,556.613 363.044,565.613 354.5,575C 349.687,577.648 346.02,581.482 343.5,586.5C 338.506,590.494 333.84,594.827 329.5,599.5C 328.224,600.614 328.224,601.614 329.5,602.5 Z"/></g>
<g><path style="opacity:0.004" fill="#d0ac4e" d="M 437.5,357.5 C 436.833,356.167 436.833,356.167 437.5,357.5 Z"/></g>
<g><path style="opacity:0.024" fill="#77ca50" d="M 878.5,358.5 C 879.833,359.167 879.833,359.167 878.5,358.5 Z"/></g>
<g><path style="opacity:0.004" fill="#4bbbd7" d="M 725.5,359.5 C 726.833,360.167 726.833,360.167 725.5,359.5 Z"/></g>
<g><path style="opacity:0.004" fill="#73ce67" d="M 789.5,365.5 C 788.833,364.167 788.833,364.167 789.5,365.5 Z"/></g>
<g><path style="opacity:0.006" fill="#73cd6c" d="M 789.5,365.5 C 790.773,366.077 790.773,366.743 789.5,367.5C 788.537,367.03 788.537,366.363 789.5,365.5 Z"/></g>
<g><path style="opacity:0.02" fill="#74c54f" d="M 870.5,366.5 C 871.833,367.167 871.833,367.167 870.5,366.5 Z"/></g>
<g><path style="opacity:0.004" fill="#72cd6c" d="M 793.5,370.5 C 794.833,371.167 794.833,371.167 793.5,370.5 Z"/></g>
<g><path style="opacity:0.004" fill="#71cb6d" d="M 794.5,372.5 C 795.833,373.167 795.833,373.167 794.5,372.5 Z"/></g>
<g><path style="opacity:0.999" fill="#fda41b" d="M 447.5,345.5 C 471.167,368.5 494.5,391.833 517.5,415.5C 454.62,477.876 391.953,540.21 329.5,602.5C 328.224,601.614 328.224,600.614 329.5,599.5C 333.84,594.827 338.506,590.494 343.5,586.5C 346.02,581.482 349.687,577.648 354.5,575C 363.044,565.613 372.044,556.613 381.5,548C 381.167,547.667 380.833,547.333 380.5,547C 381.253,545.513 382.086,545.346 383,546.5C 401.126,528.506 418.959,510.173 436.5,491.5C 438.316,490.185 439.983,488.685 441.5,487C 442.448,486.517 443.448,486.351 444.5,486.5C 444.351,485.448 444.517,484.448 445,483.5C 457.718,470.28 470.885,457.613 484.5,445.5C 485.38,443.571 486.38,441.737 487.5,440C 487.607,436.734 487.273,433.401 486.5,430C 490.361,429.431 490.361,428.598 486.5,427.5C 487.167,427.167 487.833,426.833 488.5,426.5C 486.009,425.459 486.009,424.626 488.5,424C 487.483,422.951 487.316,421.784 488,420.5C 488.317,422.301 488.984,422.634 490,421.5C 491.678,422.682 491.512,423.848 489.5,425C 490.759,426.602 492.092,426.436 493.5,424.5C 492.998,423.284 492.665,422.117 492.5,421C 493.744,420.544 494.577,421.044 495,422.5C 495.445,420.406 494.612,418.906 492.5,418C 493.634,416.984 493.301,416.317 491.5,416C 493.731,414.723 495.398,412.889 496.5,410.5C 495.294,407.278 495.294,404.112 496.5,401C 495.5,399 494.5,399 493.5,401C 494.271,402.998 493.605,404.665 491.5,406C 495.19,406.424 495.357,407.258 492,408.5C 489.955,405.577 487.788,402.743 485.5,400C 484.216,399.316 483.049,399.483 482,400.5C 481.506,398.866 481.34,397.199 481.5,395.5C 479.278,395.178 477.444,395.845 476,397.5C 474.745,396.789 473.579,395.956 472.5,395C 472.807,393.318 473.14,391.652 473.5,390C 472.311,388.417 471.478,386.584 471,384.5C 469.32,383.397 467.82,383.73 466.5,385.5C 463.972,384.502 463.972,383.669 466.5,383C 465.304,381.636 464.304,380.136 463.5,378.5C 464.705,376.879 464.539,375.546 463,374.5C 460.291,375.706 458.625,374.706 458,371.5C 457.667,371.833 457.333,372.167 457,372.5C 454.833,371 455,369.833 457.5,369C 456.289,367.156 454.956,366.322 453.5,366.5C 453.833,364.5 454.167,362.5 454.5,360.5C 452.199,359.332 450.866,357.832 450.5,356C 452.878,355.026 452.544,354.359 449.5,354C 450.833,353.333 450.833,352.667 449.5,352C 448.167,351.333 446.833,351.333 445.5,352C 413.884,383.783 382.218,415.283 350.5,446.5C 350.733,444.938 351.4,443.605 352.5,442.5C 358.425,437.242 364.092,431.575 369.5,425.5C 372.5,423.167 375.167,420.5 377.5,417.5C 383.5,412.167 389.167,406.5 394.5,400.5C 401.167,394.5 407.5,388.167 413.5,381.5C 415.167,380.5 416.5,379.167 417.5,377.5C 424.5,371.167 431.167,364.5 437.5,357.5C 440.5,355.167 443.167,352.5 445.5,349.5C 447.104,348.713 447.771,347.38 447.5,345.5 Z"/></g>
<g><path style="opacity:0.016" fill="#78c855" d="M 862.5,374.5 C 863.833,375.167 863.833,375.167 862.5,374.5 Z"/></g>
<g><path style="opacity:0.004" fill="#e8a836" d="M 417.5,377.5 C 416.833,376.167 416.833,376.167 417.5,377.5 Z"/></g>
<g><path style="opacity:0.004" fill="#e8a832" d="M 413.5,381.5 C 412.833,380.167 412.833,380.167 413.5,381.5 Z"/></g>
<g><path style="opacity:0.016" fill="#73cb6c" d="M 804.5,382.5 C 805.833,383.167 805.833,383.167 804.5,382.5 Z"/></g>
<g><path style="opacity:0.004" fill="#73cc6c" d="M 806.5,382.5 C 807.833,383.167 807.833,383.167 806.5,382.5 Z"/></g>
<g><path style="opacity:0.024" fill="#75c551" d="M 854.5,382.5 C 855.833,383.167 855.833,383.167 854.5,382.5 Z"/></g>
<g><path style="opacity:0.004" fill="#71c76b" d="M 811.5,386.5 C 811.103,387.525 810.437,387.692 809.5,387C 810.094,386.536 810.761,386.369 811.5,386.5 Z"/></g>
<g><path style="opacity:0.004" fill="#71c554" d="M 846.5,390.5 C 847.833,391.167 847.833,391.167 846.5,390.5 Z"/></g>
<g><path style="opacity:0.008" fill="#43b6d9" d="M 758.5,393.5 C 759.833,394.167 759.833,394.167 758.5,393.5 Z"/></g>
<g><path style="opacity:0.004" fill="#70ca6d" d="M 819.5,393.5 C 820.833,394.167 820.833,394.167 819.5,393.5 Z"/></g>
<g><path style="opacity:0.004" fill="#71c76b" d="M 824.5,396.5 C 825.386,395.224 826.386,395.224 827.5,396.5C 826.767,397.087 825.767,397.087 824.5,396.5 Z"/></g>
<g><path style="opacity:0.008" fill="#6fc464" d="M 836.5,396.5 C 836.897,395.475 837.563,395.308 838.5,396C 837.906,396.464 837.239,396.631 836.5,396.5 Z"/></g>
<g><path style="opacity:0.012" fill="#6ec366" d="M 831.5,396.5 C 832.833,397.167 832.833,397.167 831.5,396.5 Z"/></g>
<g><path style="opacity:0.004" fill="#eea92b" d="M 394.5,400.5 C 393.833,399.167 393.833,399.167 394.5,400.5 Z"/></g>
<g><path style="opacity:0.004" fill="#f1a62b" d="M 377.5,417.5 C 376.833,416.167 376.833,416.167 377.5,417.5 Z"/></g>
<g><path style="opacity:0.004" fill="#f1a529" d="M 369.5,425.5 C 368.833,424.167 368.833,424.167 369.5,425.5 Z"/></g>
<g><path style="opacity:0.004" fill="#f1a726" d="M 352.5,442.5 C 351.833,441.167 351.833,441.167 352.5,442.5 Z"/></g>
<g><path style="opacity:0.004" fill="#40accc" d="M 822.5,457.5 C 823.833,458.167 823.833,458.167 822.5,457.5 Z"/></g>
<g><path style="opacity:0.004" fill="#3fa7c6" d="M 825.5,463.5 C 826.833,464.167 826.833,464.167 825.5,463.5 Z"/></g>
<g><path style="opacity:0.004" fill="#3ea3c7" d="M 827.5,470.5 C 828.833,471.167 828.833,471.167 827.5,470.5 Z"/></g>
<g><path style="opacity:0.004" fill="#3da5c8" d="M 827.5,476.5 C 828.525,476.897 828.692,477.563 828,478.5C 827.536,477.906 827.369,477.239 827.5,476.5 Z"/></g>
<g><path style="opacity:0.004" fill="#3ca2c6" d="M 825.5,482.5 C 826.833,483.167 826.833,483.167 825.5,482.5 Z"/></g>
<g><path style="opacity:0.004" fill="#f3a827" d="M 304.5,491.5 C 303.833,490.167 303.833,490.167 304.5,491.5 Z"/></g>
<g><path style="opacity:0.008" fill="#3aa6cf" d="M 814.5,496.5 C 815.833,497.167 815.833,497.167 814.5,496.5 Z"/></g>
<g><path style="opacity:0.999" fill="#fe8c1e" d="M 599.5,496.5 C 621.908,518.242 643.908,540.242 665.5,562.5C 664.167,563.167 663.167,564.167 662.5,565.5C 661.833,565.5 661.5,565.833 661.5,566.5C 607.618,620.05 553.951,673.384 500.5,726.5C 464.779,761.888 429.113,797.221 393.5,832.5C 391.98,824.861 390.647,817.195 389.5,809.5C 387.466,786.546 386.132,763.546 385.5,740.5C 385.462,729.773 386.129,719.106 387.5,708.5C 457.644,637.689 528.311,567.023 599.5,496.5 Z"/></g>
<g><path style="opacity:0.004" fill="#f5a820" d="M 264.5,531.5 C 263.833,530.167 263.833,530.167 264.5,531.5 Z"/></g>
<g><path style="opacity:0.976" fill="#fc9d11" d="M 350.5,446.5 C 342.874,455.296 335.04,463.963 327,472.5C 289.644,509.856 252.477,547.023 215.5,584C 214.473,584.513 213.473,585.013 212.5,585.5C 213.415,583.246 214.748,581.246 216.5,579.5C 232.806,563.86 248.806,547.86 264.5,531.5C 278.167,518.5 291.5,505.167 304.5,491.5C 319.934,476.397 335.268,461.397 350.5,446.5 Z"/></g>
<g><path style="opacity:0.016" fill="#b09362" d="M 662.5,565.5 C 666.276,565.469 666.443,566.136 663,567.5C 662.235,567.43 661.735,567.097 661.5,566.5C 662.167,566.5 662.5,566.167 662.5,565.5 Z"/></g>
<g><path style="opacity:0.012" fill="#7b9997" d="M 671.5,572.5 C 672.833,573.167 672.833,573.167 671.5,572.5 Z"/></g>
<g><path style="opacity:0.012" fill="#f7a91f" d="M 216.5,579.5 C 215.833,578.167 215.833,578.167 216.5,579.5 Z"/></g>
<g><path style="opacity:0.004" fill="#659eac" d="M 679.5,578.5 C 680.833,579.167 680.833,579.167 679.5,578.5 Z"/></g>
<g><path style="opacity:0.008" fill="#629dae" d="M 681.5,580.5 C 682.833,581.167 682.833,581.167 681.5,580.5 Z"/></g>
<g><path style="opacity:0.004" fill="#e48b29" d="M 646.5,582.5 C 647.833,583.167 647.833,583.167 646.5,582.5 Z"/></g>
<g><path style="opacity:0.004" fill="#40a5cd" d="M 725.5,583.5 C 726.833,584.167 726.833,584.167 725.5,583.5 Z"/></g>
<g><path style="opacity:0.016" fill="#559dbc" d="M 688.5,585.5 C 687.833,586.167 687.833,586.167 688.5,585.5 Z"/></g>
<g><path style="opacity:0.004" fill="#f6ab20" d="M 207.5,586.5 C 208.833,587.167 208.833,587.167 207.5,586.5 Z"/></g>
<g><path style="opacity:0.004" fill="#4da2c3" d="M 696.5,590.5 C 697.833,591.167 697.833,591.167 696.5,590.5 Z"/></g>
<g><path style="opacity:0.004" fill="#f4b71f" d="M 168.5,627.5 C 167.833,626.167 167.833,626.167 168.5,627.5 Z"/></g>
<g><path style="opacity:0.004" fill="#f5bc1f" d="M 159.5,634.5 C 160.833,635.167 160.833,635.167 159.5,634.5 Z"/></g>
<g><path style="opacity:0.004" fill="#f1861c" d="M 590.5,638.5 C 591.833,639.167 591.833,639.167 590.5,638.5 Z"/></g>
<g><path style="opacity:0.008" fill="#f6c221" d="M 112.5,689.5 C 111.833,688.167 111.833,688.167 112.5,689.5 Z"/></g>
<g><path style="opacity:0.999" fill="#fec61f" d="M 185.5,747.5 C 184.17,744.659 182.837,741.159 181.5,737C 182.34,735.334 181.84,735.167 180,736.5C 176.07,735.031 175.903,733.864 179.5,733C 176.779,731.349 176.446,729.682 178.5,728C 177.747,726.513 176.914,726.346 176,727.5C 175.355,726.354 174.522,725.354 173.5,724.5C 173.846,723.304 174.346,723.304 175,724.5C 175.684,723.216 175.517,722.049 174.5,721C 175.618,719.926 176.618,718.76 177.5,717.5C 178.799,718.09 179.632,719.09 180,720.5C 180.49,719.207 180.657,717.873 180.5,716.5C 176.722,715.807 176.722,714.64 180.5,713C 178.009,712.374 178.009,711.541 180.5,710.5C 179.011,710.467 177.678,709.967 176.5,709C 177.167,708.667 177.833,708.333 178.5,708C 178.018,706.992 177.852,705.825 178,704.5C 176.022,705.816 174.522,705.316 173.5,703C 175.095,703.617 176.428,703.284 177.5,702C 174.151,701.911 173.651,700.744 176,698.5C 176.333,699.167 176.667,699.833 177,700.5C 179.429,699.971 181.262,698.637 182.5,696.5C 180.93,696.306 179.43,696.306 178,696.5C 177.51,695.207 177.343,693.873 177.5,692.5C 174.402,692.587 174.068,692.087 176.5,691C 175.833,690.333 175.167,689.667 174.5,689C 176.447,689.536 178.447,689.202 180.5,688C 179.833,687.667 179.167,687.333 178.5,687C 180.256,686.798 181.922,686.298 183.5,685.5C 183.333,685.167 183.167,684.833 183,684.5C 181.667,684.5 180.333,684.5 179,684.5C 178.085,685.328 177.419,686.328 177,687.5C 176.683,685.699 176.016,685.366 175,686.5C 174.405,685.101 174.572,683.768 175.5,682.5C 174.397,682.002 173.397,681.669 172.5,681.5C 174.098,679.027 175.598,679.027 177,681.5C 177.5,680.333 178.333,679.5 179.5,679C 175.384,678.675 171.384,677.841 167.5,676.5C 169.082,676.243 170.915,675.576 173,674.5C 175.107,678.515 175.773,678.182 175,673.5C 174.25,672.874 173.416,672.374 172.5,672C 175.08,670.519 175.913,668.352 175,665.5C 173.636,666.258 172.469,665.758 171.5,664C 173.904,662.179 176.237,662.346 178.5,664.5C 177.833,665.5 177.167,666.5 176.5,667.5C 176.833,667.833 177.167,668.167 177.5,668.5C 179.037,666.347 180.704,665.18 182.5,665C 180.947,665.061 179.613,664.061 178.5,662C 176.866,661.506 175.199,661.34 173.5,661.5C 173.413,658.402 173.913,658.068 175,660.5C 176.067,659.809 177.234,659.309 178.5,659C 177.833,658.667 177.167,658.333 176.5,658C 178.693,656.936 180.693,655.602 182.5,654C 180.671,653.727 179.171,652.893 178,651.5C 175.871,652.863 175.371,652.529 176.5,650.5C 176.023,649.522 175.357,648.689 174.5,648C 175.766,647.691 176.933,647.191 178,646.5C 178.333,647.167 178.667,647.833 179,648.5C 179.707,646.919 180.54,645.419 181.5,644C 180.551,643.383 179.718,643.549 179,644.5C 178.383,643.551 178.549,642.718 179.5,642C 178.333,641.5 177.5,640.667 177,639.5C 175.703,640.784 174.536,640.617 173.5,639C 174.833,638.333 174.833,637.667 173.5,637C 174.167,636.667 174.833,636.333 175.5,636C 174.128,635.369 172.795,634.702 171.5,634C 171.759,632.739 172.426,631.739 173.5,631C 172.45,628.497 173.45,626.997 176.5,626.5C 179.648,627.14 179.981,628.14 177.5,629.5C 176.035,628.391 175.035,628.891 174.5,631C 176.848,631.11 178.348,632.277 179,634.5C 180.585,633.624 181.585,632.291 182,630.5C 182.718,631.451 183.551,631.617 184.5,631C 184.36,629.736 184.36,628.569 184.5,627.5C 186.003,628.59 186.336,629.757 185.5,631C 186,631.167 186.5,631.333 187,631.5C 189.124,631.98 190.957,631.48 192.5,630C 191.366,631.016 191.699,631.683 193.5,632C 191.099,632.805 191.266,633.638 194,634.5C 195.415,631.782 197.415,631.115 200,632.5C 201.085,631.707 202.252,631.04 203.5,630.5C 204.5,631.833 205.5,631.833 206.5,630.5C 207.192,631.025 207.692,631.692 208,632.5C 209.667,631.833 211.333,631.167 213,630.5C 213.333,631.5 213.667,632.5 214,633.5C 215.098,632.033 216.598,631.199 218.5,631C 217.328,630.581 216.328,629.915 215.5,629C 218.167,628.333 220.833,628.333 223.5,629C 223.167,629.333 222.833,629.667 222.5,630C 224.419,631.934 225.919,631.767 227,629.5C 228.049,630.517 229.216,630.684 230.5,630C 231.833,629.333 231.833,628.667 230.5,628C 242.205,627.907 251.205,627.407 257.5,626.5C 260.641,625.679 263.975,625.179 267.5,625C 279.5,624.333 291.5,624.333 303.5,625C 296.731,632.525 289.731,639.858 282.5,647C 281.552,647.483 280.552,647.649 279.5,647.5C 277.965,650.232 276.131,652.898 274,655.5C 248.21,681.447 222.21,707.114 196,732.5C 192.248,737.403 188.748,742.403 185.5,747.5 Z"/></g>
<g><path style="opacity:0.004" fill="#f4c321" d="M 104.5,703.5 C 103.833,702.167 103.833,702.167 104.5,703.5 Z"/></g>
<g><path style="opacity:0.004" fill="#f58818" d="M 518.5,710.5 C 519.833,711.167 519.833,711.167 518.5,710.5 Z"/></g>
<g><path style="opacity:0.008" fill="#fabf1f" d="M 95.5,720.5 C 96.8333,721.167 96.8333,721.167 95.5,720.5 Z"/></g>
<g><path style="opacity:0.004" fill="#f48d17" d="M 500.5,726.5 C 501.833,727.167 501.833,727.167 500.5,726.5 Z"/></g>
<g><path style="opacity:0.999" fill="#fec91f" d="M 257.5,626.5 C 251.205,627.407 242.205,627.907 230.5,628C 231.833,628.667 231.833,629.333 230.5,630C 229.216,630.684 228.049,630.517 227,629.5C 225.919,631.767 224.419,631.934 222.5,630C 222.833,629.667 223.167,629.333 223.5,629C 220.833,628.333 218.167,628.333 215.5,629C 216.328,629.915 217.328,630.581 218.5,631C 216.598,631.199 215.098,632.033 214,633.5C 213.667,632.5 213.333,631.5 213,630.5C 211.333,631.167 209.667,631.833 208,632.5C 207.692,631.692 207.192,631.025 206.5,630.5C 205.5,631.833 204.5,631.833 203.5,630.5C 202.252,631.04 201.085,631.707 200,632.5C 197.415,631.115 195.415,631.782 194,634.5C 191.266,633.638 191.099,632.805 193.5,632C 191.699,631.683 191.366,631.016 192.5,630C 190.957,631.48 189.124,631.98 187,631.5C 186.5,631.333 186,631.167 185.5,631C 186.336,629.757 186.003,628.59 184.5,627.5C 184.36,628.569 184.36,629.736 184.5,631C 183.551,631.617 182.718,631.451 182,630.5C 181.585,632.291 180.585,633.624 179,634.5C 178.348,632.277 176.848,631.11 174.5,631C 175.035,628.891 176.035,628.391 177.5,629.5C 179.981,628.14 179.648,627.14 176.5,626.5C 173.45,626.997 172.45,628.497 173.5,631C 172.426,631.739 171.759,632.739 171.5,634C 172.795,634.702 174.128,635.369 175.5,636C 174.833,636.333 174.167,636.667 173.5,637C 174.833,637.667 174.833,638.333 173.5,639C 174.536,640.617 175.703,640.784 177,639.5C 177.5,640.667 178.333,641.5 179.5,642C 178.549,642.718 178.383,643.551 179,644.5C 179.718,643.549 180.551,643.383 181.5,644C 180.54,645.419 179.707,646.919 179,648.5C 178.667,647.833 178.333,647.167 178,646.5C 176.933,647.191 175.766,647.691 174.5,648C 175.357,648.689 176.023,649.522 176.5,650.5C 175.371,652.529 175.871,652.863 178,651.5C 179.171,652.893 180.671,653.727 182.5,654C 180.693,655.602 178.693,656.936 176.5,658C 177.167,658.333 177.833,658.667 178.5,659C 177.234,659.309 176.067,659.809 175,660.5C 173.913,658.068 173.413,658.402 173.5,661.5C 175.199,661.34 176.866,661.506 178.5,662C 179.613,664.061 180.947,665.061 182.5,665C 180.704,665.18 179.037,666.347 177.5,668.5C 177.167,668.167 176.833,667.833 176.5,667.5C 177.167,666.5 177.833,665.5 178.5,664.5C 176.237,662.346 173.904,662.179 171.5,664C 172.469,665.758 173.636,666.258 175,665.5C 175.913,668.352 175.08,670.519 172.5,672C 173.416,672.374 174.25,672.874 175,673.5C 175.773,678.182 175.107,678.515 173,674.5C 170.915,675.576 169.082,676.243 167.5,676.5C 171.384,677.841 175.384,678.675 179.5,679C 178.333,679.5 177.5,680.333 177,681.5C 175.598,679.027 174.098,679.027 172.5,681.5C 173.397,681.669 174.397,682.002 175.5,682.5C 174.572,683.768 174.405,685.101 175,686.5C 176.016,685.366 176.683,685.699 177,687.5C 177.419,686.328 178.085,685.328 179,684.5C 180.333,684.5 181.667,684.5 183,684.5C 183.167,684.833 183.333,685.167 183.5,685.5C 181.922,686.298 180.256,686.798 178.5,687C 179.167,687.333 179.833,687.667 180.5,688C 178.447,689.202 176.447,689.536 174.5,689C 175.167,689.667 175.833,690.333 176.5,691C 174.068,692.087 174.402,692.587 177.5,692.5C 177.343,693.873 177.51,695.207 178,696.5C 179.43,696.306 180.93,696.306 182.5,696.5C 181.262,698.637 179.429,699.971 177,700.5C 176.667,699.833 176.333,699.167 176,698.5C 173.651,700.744 174.151,701.911 177.5,702C 176.428,703.284 175.095,703.617 173.5,703C 174.522,705.316 176.022,705.816 178,704.5C 177.852,705.825 178.018,706.992 178.5,708C 177.833,708.333 177.167,708.667 176.5,709C 177.678,709.967 179.011,710.467 180.5,710.5C 178.009,711.541 178.009,712.374 180.5,713C 176.722,714.64 176.722,715.807 180.5,716.5C 180.657,717.873 180.49,719.207 180,720.5C 179.632,719.09 178.799,718.09 177.5,717.5C 176.618,718.76 175.618,719.926 174.5,721C 175.517,722.049 175.684,723.216 175,724.5C 174.346,723.304 173.846,723.304 173.5,724.5C 174.522,725.354 175.355,726.354 176,727.5C 176.914,726.346 177.747,726.513 178.5,728C 176.446,729.682 176.779,731.349 179.5,733C 175.903,733.864 176.07,735.031 180,736.5C 181.84,735.167 182.34,735.334 181.5,737C 182.837,741.159 184.17,744.659 185.5,747.5C 183.36,752.319 181.526,757.319 180,762.5C 179.204,765.039 179.371,767.372 180.5,769.5C 180.784,771.415 180.451,773.081 179.5,774.5C 179.657,773.127 179.49,771.793 179,770.5C 176.075,799.638 168.908,827.638 157.5,854.5C 156.975,855.192 156.308,855.692 155.5,856C 156.022,856.561 156.355,857.228 156.5,858C 154.855,859.645 153.188,861.312 151.5,863C 152.5,863.333 153.5,863.667 154.5,864C 150.813,867.245 147.48,870.745 144.5,874.5C 103.356,914.48 62.8561,955.48 23,997.5C 9.79652,985.025 3.62986,969.358 4.5,950.5C 8.44603,931.976 15.946,915.643 27,901.5C 28.0945,899.922 28.9278,898.255 29.5,896.5C 33.9401,891.722 37.6068,886.388 40.5,880.5C 42.8333,877.833 45.1667,875.167 47.5,872.5C 48.6431,872.092 49.6431,871.425 50.5,870.5C 53.8349,865.341 57.3349,860.341 61,855.5C 61.3333,854.167 61.6667,852.833 62,851.5C 75.7272,830.028 85.0605,806.695 90,781.5C 91.9145,763.438 94.2478,745.438 97,727.5C 103.44,706.951 113.774,688.618 128,672.5C 142.93,656.447 158.43,640.947 174.5,626C 202.147,626.419 229.813,626.585 257.5,626.5 Z"/></g>
<g><path style="opacity:0.004" fill="#fac521" d="M 90.5,741.5 C 91.8333,742.167 91.8333,742.167 90.5,741.5 Z"/></g>
<g><path style="opacity:0.004" fill="#fac21f" d="M 89.5,747.5 C 90.8333,748.167 90.8333,748.167 89.5,747.5 Z"/></g>
<g><path style="opacity:0.01" fill="#fcc522" d="M 88.5,774.5 C 87.3775,772.712 87.2109,770.712 88,768.5C 88.4955,770.473 88.6621,772.473 88.5,774.5 Z"/></g>
<g><path style="opacity:0.004" fill="#fcc81f" d="M 84.5,788.5 C 85.525,788.897 85.6917,789.563 85,790.5C 84.5357,789.906 84.369,789.239 84.5,788.5 Z"/></g>
<g><path style="opacity:0.008" fill="#fec721" d="M 83.5,792.5 C 84.8333,793.167 84.8333,793.167 83.5,792.5 Z"/></g>
<g><path style="opacity:0.016" fill="#fdc61e" d="M 79.5,807.5 C 80.8333,808.167 80.8333,808.167 79.5,807.5 Z"/></g>
<g><path style="opacity:0.004" fill="#fdca21" d="M 73.5,821.5 C 74.8333,822.167 74.8333,822.167 73.5,821.5 Z"/></g>
<g><path style="opacity:0.006" fill="#fec822" d="M 72.5,828.5 C 71.4265,827.749 71.2599,826.749 72,825.5C 72.4828,826.448 72.6495,827.448 72.5,828.5 Z"/></g>
<g><path style="opacity:0.004" fill="#f9a019" d="M 398.5,830.5 C 397.833,829.167 397.833,829.167 398.5,830.5 Z"/></g>
<g><path style="opacity:0.004" fill="#f79d1b" d="M 398.5,830.5 C 399.833,831.167 399.833,831.167 398.5,830.5 Z"/></g>
<g><path style="opacity:0.004" fill="#fccc20" d="M 64.5,843.5 C 63.8333,842.167 63.8333,842.167 64.5,843.5 Z"/></g>
<g><path style="opacity:0.016" fill="#fcc822" d="M 56.5,856.5 C 55.8333,855.167 55.8333,855.167 56.5,856.5 Z"/></g>
<g><path style="opacity:0.008" fill="#fdc91f" d="M 41.5,876.5 C 42.8333,877.167 42.8333,877.167 41.5,876.5 Z"/></g>
<g><path style="opacity:0.024" fill="#f9c823" d="M 40.5,880.5 C 39.8333,879.167 39.8333,879.167 40.5,880.5 Z"/></g>
<g><path style="opacity:0.998" fill="#febe1e" d="M 387.5,708.5 C 386.129,719.106 385.462,729.773 385.5,740.5C 386.132,763.546 387.466,786.546 389.5,809.5C 389.134,814.468 388.634,814.134 388,808.5C 387.667,808.833 387.333,809.167 387,809.5C 386.711,811.714 386.877,814.047 387.5,816.5C 386.833,816.833 386.167,817.167 385.5,817.5C 389.691,822.799 389.191,823.466 384,819.5C 382.441,820.029 380.941,820.696 379.5,821.5C 378.742,820.189 377.742,819.689 376.5,820C 377.92,822.209 379.587,824.209 381.5,826C 379.469,826.632 377.802,827.799 376.5,829.5C 377.919,831.127 377.586,831.627 375.5,831C 369.195,824.437 368.028,825.271 372,833.5C 372.654,832.304 373.154,832.304 373.5,833.5C 372.5,834.167 371.5,834.833 370.5,835.5C 371.504,837.677 370.838,838.011 368.5,836.5C 367.459,834.009 366.626,834.009 366,836.5C 365.667,835.833 365.333,835.167 365,834.5C 364.29,835.973 363.124,836.64 361.5,836.5C 361.312,838.103 361.812,839.437 363,840.5C 363.333,840.167 363.667,839.833 364,839.5C 365.419,840.46 366.919,841.293 368.5,842C 366.122,842.511 363.788,843.178 361.5,844C 363.941,844.036 365.941,844.869 367.5,846.5C 366.753,846.736 365.92,847.07 365,847.5C 364.692,846.692 364.192,846.025 363.5,845.5C 363.089,846.262 362.923,847.262 363,848.5C 362.282,847.549 361.449,847.383 360.5,848C 361.071,849.205 361.738,850.372 362.5,851.5C 363.989,851.533 365.322,852.033 366.5,853C 365.747,854.487 364.914,854.654 364,853.5C 361.42,856.294 359.587,855.794 358.5,852C 358.735,851.127 359.069,850.293 359.5,849.5C 358.11,847.797 356.61,847.13 355,847.5C 354.383,848.449 354.549,849.282 355.5,850C 354.022,851.193 352.688,851.693 351.5,851.5C 353.461,852.848 353.628,854.181 352,855.5C 351.667,854.833 351.333,854.167 351,853.5C 347.959,854.186 345.625,855.853 344,858.5C 343.691,857.234 343.191,856.067 342.5,855C 343.205,853.443 342.539,852.277 340.5,851.5C 339.522,851.977 338.689,852.643 338,853.5C 336.274,852.424 334.441,852.257 332.5,853C 333.167,854 333.833,855 334.5,856C 333,856.833 331.833,858 331,859.5C 330.667,858.833 330.333,858.167 330,857.5C 329.854,862.266 328.354,862.599 325.5,858.5C 324.833,858.833 324.167,859.167 323.5,859.5C 322.41,858.273 321.076,857.44 319.5,857C 320.167,855.667 321.167,854.667 322.5,854C 320.168,852.018 318.335,852.518 317,855.5C 316.5,855 316,854.5 315.5,854C 319.446,852.04 319.446,850.04 315.5,848C 316.257,846.488 317.257,845.154 318.5,844C 316.833,844.333 315.167,844.667 313.5,845C 314.061,843.324 315.061,841.991 316.5,841C 315.975,840.308 315.308,839.808 314.5,839.5C 313.833,840.833 313.167,842.167 312.5,843.5C 309.196,843.227 306.363,844.56 304,847.5C 303.333,846.833 302.667,846.167 302,845.5C 300.278,845.962 298.445,846.128 296.5,846C 297.696,846.654 297.696,847.154 296.5,847.5C 295.147,846.315 293.98,844.981 293,843.5C 292.667,844.167 292.333,844.833 292,845.5C 288.815,844.202 288.982,842.035 292.5,839C 291.109,837.98 289.609,837.147 288,836.5C 287.493,837.996 287.993,839.163 289.5,840C 287.954,841.44 287.121,843.273 287,845.5C 286.311,844.643 285.478,843.977 284.5,843.5C 282.62,846.091 280.62,848.591 278.5,851C 280.021,854.017 279.021,855.85 275.5,856.5C 276.651,857.731 277.817,857.731 279,856.5C 280.564,858.665 280.397,860.332 278.5,861.5C 280.534,864.94 283.367,865.94 287,864.5C 291.485,866.31 291.652,868.477 287.5,871C 287.745,873.089 287.745,875.089 287.5,877C 289.901,877.805 289.734,878.638 287,879.5C 284.256,877.016 282.256,874.016 281,870.5C 280.5,871.667 279.667,872.5 278.5,873C 277.429,875.605 277.429,878.105 278.5,880.5C 277.998,881.521 277.332,881.688 276.5,881C 277.236,877.801 276.403,877.635 274,880.5C 272.173,878.76 272.34,877.093 274.5,875.5C 273.5,874.667 272.5,873.833 271.5,873C 274.232,868.268 273.898,867.768 270.5,871.5C 269.167,870.167 267.833,870.167 266.5,871.5C 264.95,868.871 265.616,867.037 268.5,866C 266.339,865.278 264.672,865.945 263.5,868C 264.517,869.049 264.684,870.216 264,871.5C 263.085,872.328 262.419,873.328 262,874.5C 261,873.167 260,873.167 259,874.5C 258.316,875.784 258.483,876.951 259.5,878C 258.833,878.167 258.167,878.333 257.5,878.5C 256.214,878.148 255.381,877.482 255,876.5C 253.211,877.409 251.377,877.576 249.5,877C 251.295,876.743 253.295,876.077 255.5,875C 253.945,873.354 252.279,873.021 250.5,874C 251.77,871.374 251.104,869.207 248.5,867.5C 246.942,868.371 245.275,869.371 243.5,870.5C 243.167,869.833 242.833,869.167 242.5,868.5C 240.851,869.648 239.351,870.981 238,872.5C 237.289,874.367 237.789,875.867 239.5,877C 238.406,878.78 237.406,880.614 236.5,882.5C 235.699,878.779 234.366,878.612 232.5,882C 232.863,885.395 232.863,888.895 232.5,892.5C 234.144,892.286 235.644,892.62 237,893.5C 237.915,892.672 238.581,891.672 239,890.5C 241.3,893.01 240.966,895.01 238,896.5C 235.667,895.167 233.333,895.167 231,896.5C 230.667,895.833 230.333,895.167 230,894.5C 228.615,895.551 227.615,896.884 227,898.5C 226.957,895.783 225.957,895.116 224,896.5C 222.739,896.241 221.739,895.574 221,894.5C 218.824,894.988 216.991,895.988 215.5,897.5C 217.259,898.754 218.759,898.421 220,896.5C 221.615,897.656 221.615,898.989 220,900.5C 217.667,899.167 215.333,899.167 213,900.5C 212.25,899.874 211.416,899.374 210.5,899C 211.647,897.719 211.313,897.386 209.5,898C 209.043,898.414 208.709,898.914 208.5,899.5C 210.053,900.439 211.387,901.606 212.5,903C 211.387,904.394 210.053,905.561 208.5,906.5C 210.973,908.098 210.973,909.598 208.5,911C 211.668,911.582 212.001,912.582 209.5,914C 210.167,914.333 210.833,914.667 211.5,915C 209.606,916.079 209.273,917.413 210.5,919C 209.241,919.982 207.908,920.315 206.5,920C 206.09,917.76 206.757,915.593 208.5,913.5C 207.443,913.094 206.109,913.094 204.5,913.5C 204.5,912.5 204.5,911.5 204.5,910.5C 198.922,910.475 197.589,908.309 200.5,904C 198.633,903.289 197.133,903.789 196,905.5C 195.751,904.376 195.251,903.376 194.5,902.5C 194.704,903.529 194.204,904.529 193,905.5C 191.333,904.5 190,903.167 189,901.5C 185.759,903.733 186.259,905.233 190.5,906C 189.251,907.824 188.085,907.657 187,905.5C 186,905.833 185,906.167 184,906.5C 182.363,905.167 181.529,903.834 181.5,902.5C 180.749,903.376 180.249,904.376 180,905.5C 179.02,904.019 177.853,902.685 176.5,901.5C 175.268,902.145 173.935,902.311 172.5,902C 173.328,902.915 174.328,903.581 175.5,904C 173.13,905.226 170.964,906.06 169,906.5C 167.383,905.464 167.216,904.297 168.5,903C 166.699,902.683 166.366,902.016 167.5,901C 166.551,900.383 165.718,900.549 165,901.5C 164.333,900.167 163.667,898.833 163,897.5C 161.474,897.527 159.974,898.027 158.5,899C 159.271,897.002 158.605,895.335 156.5,894C 157.448,893.517 158.448,893.351 159.5,893.5C 159.793,897.221 160.459,897.055 161.5,893C 159.97,889.484 158.47,885.984 157,882.5C 155.156,883.711 154.322,885.044 154.5,886.5C 153.749,885.624 153.249,884.624 153,883.5C 151.667,884.833 150.333,884.833 149,883.5C 148.5,884.667 147.667,885.5 146.5,886C 146.833,886.333 147.167,886.667 147.5,887C 146.175,886.852 145.008,887.018 144,887.5C 143.232,883.08 143.398,878.747 144.5,874.5C 147.48,870.745 150.813,867.245 154.5,864C 153.5,863.667 152.5,863.333 151.5,863C 153.188,861.312 154.855,859.645 156.5,858C 156.355,857.228 156.022,856.561 155.5,856C 156.308,855.692 156.975,855.192 157.5,854.5C 168.908,827.638 176.075,799.638 179,770.5C 179.49,771.793 179.657,773.127 179.5,774.5C 178.715,785.258 177.215,795.925 175,806.5C 171.058,823.295 166.058,839.628 160,855.5C 171.733,848.586 184.233,843.419 197.5,840C 218.74,834.553 240.074,830.887 261.5,829C 267.741,827.548 273.075,824.548 277.5,820C 313.746,782.12 350.413,744.954 387.5,708.5 Z"/></g>
<g><path style="opacity:0.999" fill="#febc1e" d="M 389.5,809.5 C 390.647,817.195 391.98,824.861 393.5,832.5C 369.923,857.245 345.589,881.079 320.5,904C 309.763,911.2 298.43,917.034 286.5,921.5C 272.795,923.954 259.129,925.621 245.5,926.5C 227.051,927.444 209.718,932.11 193.5,940.5C 186.682,943.002 180.349,946.335 174.5,950.5C 172.5,951.5 170.5,952.5 168.5,953.5C 150.893,966.648 133.226,979.815 115.5,993C 107.426,998.237 99.0928,1002.9 90.5,1007C 75.3583,1012.8 59.8583,1013.97 44,1010.5C 43.2352,1010.57 42.7352,1010.9 42.5,1011.5C 34.1614,1008.82 26.8281,1004.49 20.5,998.5C 19.5,996.833 18.1667,995.5 16.5,994.5C 16.2624,992.596 15.2624,991.262 13.5,990.5C 12.3197,987.46 10.653,984.794 8.5,982.5C 4.75265,972.103 3.41932,961.437 4.5,950.5C 3.62986,969.358 9.79652,985.025 23,997.5C 62.8561,955.48 103.356,914.48 144.5,874.5C 143.398,878.747 143.232,883.08 144,887.5C 145.008,887.018 146.175,886.852 147.5,887C 147.167,886.667 146.833,886.333 146.5,886C 147.667,885.5 148.5,884.667 149,883.5C 150.333,884.833 151.667,884.833 153,883.5C 153.249,884.624 153.749,885.624 154.5,886.5C 154.322,885.044 155.156,883.711 157,882.5C 158.47,885.984 159.97,889.484 161.5,893C 160.459,897.055 159.793,897.221 159.5,893.5C 158.448,893.351 157.448,893.517 156.5,894C 158.605,895.335 159.271,897.002 158.5,899C 159.974,898.027 161.474,897.527 163,897.5C 163.667,898.833 164.333,900.167 165,901.5C 165.718,900.549 166.551,900.383 167.5,901C 166.366,902.016 166.699,902.683 168.5,903C 167.216,904.297 167.383,905.464 169,906.5C 170.964,906.06 173.13,905.226 175.5,904C 174.328,903.581 173.328,902.915 172.5,902C 173.935,902.311 175.268,902.145 176.5,901.5C 177.853,902.685 179.02,904.019 180,905.5C 180.249,904.376 180.749,903.376 181.5,902.5C 181.529,903.834 182.363,905.167 184,906.5C 185,906.167 186,905.833 187,905.5C 188.085,907.657 189.251,907.824 190.5,906C 186.259,905.233 185.759,903.733 189,901.5C 190,903.167 191.333,904.5 193,905.5C 194.204,904.529 194.704,903.529 194.5,902.5C 195.251,903.376 195.751,904.376 196,905.5C 197.133,903.789 198.633,903.289 200.5,904C 197.589,908.309 198.922,910.475 204.5,910.5C 204.5,911.5 204.5,912.5 204.5,913.5C 206.109,913.094 207.443,913.094 208.5,913.5C 206.757,915.593 206.09,917.76 206.5,920C 207.908,920.315 209.241,919.982 210.5,919C 209.273,917.413 209.606,916.079 211.5,915C 210.833,914.667 210.167,914.333 209.5,914C 212.001,912.582 211.668,911.582 208.5,911C 210.973,909.598 210.973,908.098 208.5,906.5C 210.053,905.561 211.387,904.394 212.5,903C 211.387,901.606 210.053,900.439 208.5,899.5C 208.709,898.914 209.043,898.414 209.5,898C 211.313,897.386 211.647,897.719 210.5,899C 211.416,899.374 212.25,899.874 213,900.5C 215.333,899.167 217.667,899.167 220,900.5C 221.615,898.989 221.615,897.656 220,896.5C 218.759,898.421 217.259,898.754 215.5,897.5C 216.991,895.988 218.824,894.988 221,894.5C 221.739,895.574 222.739,896.241 224,896.5C 225.957,895.116 226.957,895.783 227,898.5C 227.615,896.884 228.615,895.551 230,894.5C 230.333,895.167 230.667,895.833 231,896.5C 233.333,895.167 235.667,895.167 238,896.5C 240.966,895.01 241.3,893.01 239,890.5C 238.581,891.672 237.915,892.672 237,893.5C 235.644,892.62 234.144,892.286 232.5,892.5C 232.863,888.895 232.863,885.395 232.5,882C 234.366,878.612 235.699,878.779 236.5,882.5C 237.406,880.614 238.406,878.78 239.5,877C 237.789,875.867 237.289,874.367 238,872.5C 239.351,870.981 240.851,869.648 242.5,868.5C 242.833,869.167 243.167,869.833 243.5,870.5C 245.275,869.371 246.942,868.371 248.5,867.5C 251.104,869.207 251.77,871.374 250.5,874C 252.279,873.021 253.945,873.354 255.5,875C 253.295,876.077 251.295,876.743 249.5,877C 251.377,877.576 253.211,877.409 255,876.5C 255.381,877.482 256.214,878.148 257.5,878.5C 258.167,878.333 258.833,878.167 259.5,878C 258.483,876.951 258.316,875.784 259,874.5C 260,873.167 261,873.167 262,874.5C 262.419,873.328 263.085,872.328 264,871.5C 264.684,870.216 264.517,869.049 263.5,868C 264.672,865.945 266.339,865.278 268.5,866C 265.616,867.037 264.95,868.871 266.5,871.5C 267.833,870.167 269.167,870.167 270.5,871.5C 273.898,867.768 274.232,868.268 271.5,873C 272.5,873.833 273.5,874.667 274.5,875.5C 272.34,877.093 272.173,878.76 274,880.5C 276.403,877.635 277.236,877.801 276.5,881C 277.332,881.688 277.998,881.521 278.5,880.5C 277.429,878.105 277.429,875.605 278.5,873C 279.667,872.5 280.5,871.667 281,870.5C 282.256,874.016 284.256,877.016 287,879.5C 289.734,878.638 289.901,877.805 287.5,877C 287.745,875.089 287.745,873.089 287.5,871C 291.652,868.477 291.485,866.31 287,864.5C 283.367,865.94 280.534,864.94 278.5,861.5C 280.397,860.332 280.564,858.665 279,856.5C 277.817,857.731 276.651,857.731 275.5,856.5C 279.021,855.85 280.021,854.017 278.5,851C 280.62,848.591 282.62,846.091 284.5,843.5C 285.478,843.977 286.311,844.643 287,845.5C 287.121,843.273 287.954,841.44 289.5,840C 287.993,839.163 287.493,837.996 288,836.5C 289.609,837.147 291.109,837.98 292.5,839C 288.982,842.035 288.815,844.202 292,845.5C 292.333,844.833 292.667,844.167 293,843.5C 293.98,844.981 295.147,846.315 296.5,847.5C 297.696,847.154 297.696,846.654 296.5,846C 298.445,846.128 300.278,845.962 302,845.5C 302.667,846.167 303.333,846.833 304,847.5C 306.363,844.56 309.196,843.227 312.5,843.5C 313.167,842.167 313.833,840.833 314.5,839.5C 315.308,839.808 315.975,840.308 316.5,841C 315.061,841.991 314.061,843.324 313.5,845C 315.167,844.667 316.833,844.333 318.5,844C 317.257,845.154 316.257,846.488 315.5,848C 319.446,850.04 319.446,852.04 315.5,854C 316,854.5 316.5,855 317,855.5C 318.335,852.518 320.168,852.018 322.5,854C 321.167,854.667 320.167,855.667 319.5,857C 321.076,857.44 322.41,858.273 323.5,859.5C 324.167,859.167 324.833,858.833 325.5,858.5C 328.354,862.599 329.854,862.266 330,857.5C 330.333,858.167 330.667,858.833 331,859.5C 331.833,858 333,856.833 334.5,856C 333.833,855 333.167,854 332.5,853C 334.441,852.257 336.274,852.424 338,853.5C 338.689,852.643 339.522,851.977 340.5,851.5C 342.539,852.277 343.205,853.443 342.5,855C 343.191,856.067 343.691,857.234 344,858.5C 345.625,855.853 347.959,854.186 351,853.5C 351.333,854.167 351.667,854.833 352,855.5C 353.628,854.181 353.461,852.848 351.5,851.5C 352.688,851.693 354.022,851.193 355.5,850C 354.549,849.282 354.383,848.449 355,847.5C 356.61,847.13 358.11,847.797 359.5,849.5C 359.069,850.293 358.735,851.127 358.5,852C 359.587,855.794 361.42,856.294 364,853.5C 364.914,854.654 365.747,854.487 366.5,853C 365.322,852.033 363.989,851.533 362.5,851.5C 361.738,850.372 361.071,849.205 360.5,848C 361.449,847.383 362.282,847.549 363,848.5C 362.923,847.262 363.089,846.262 363.5,845.5C 364.192,846.025 364.692,846.692 365,847.5C 365.92,847.07 366.753,846.736 367.5,846.5C 365.941,844.869 363.941,844.036 361.5,844C 363.788,843.178 366.122,842.511 368.5,842C 366.919,841.293 365.419,840.46 364,839.5C 363.667,839.833 363.333,840.167 363,840.5C 361.812,839.437 361.312,838.103 361.5,836.5C 363.124,836.64 364.29,835.973 365,834.5C 365.333,835.167 365.667,835.833 366,836.5C 366.626,834.009 367.459,834.009 368.5,836.5C 370.838,838.011 371.504,837.677 370.5,835.5C 371.5,834.833 372.5,834.167 373.5,833.5C 373.154,832.304 372.654,832.304 372,833.5C 368.028,825.271 369.195,824.437 375.5,831C 377.586,831.627 377.919,831.127 376.5,829.5C 377.802,827.799 379.469,826.632 381.5,826C 379.587,824.209 377.92,822.209 376.5,820C 377.742,819.689 378.742,820.189 379.5,821.5C 380.941,820.696 382.441,820.029 384,819.5C 389.191,823.466 389.691,822.799 385.5,817.5C 386.167,817.167 386.833,816.833 387.5,816.5C 386.877,814.047 386.711,811.714 387,809.5C 387.333,809.167 387.667,808.833 388,808.5C 388.634,814.134 389.134,814.468 389.5,809.5 Z"/></g>
<g><path style="opacity:0.008" fill="#feca21" d="M 31.5,889.5 C 32.8333,890.167 32.8333,890.167 31.5,889.5 Z"/></g>
<g><path style="opacity:0.004" fill="#fdcd22" d="M 29.5,896.5 C 28.8333,895.167 28.8333,895.167 29.5,896.5 Z"/></g>
<g><path style="opacity:0.012" fill="#fdce24" d="M 17.5,911.5 C 18.8333,912.167 18.8333,912.167 17.5,911.5 Z"/></g>
<g><path style="opacity:0.012" fill="#f0b51e" d="M 286.5,921.5 C 287.833,922.167 287.833,922.167 286.5,921.5 Z"/></g>
<g><path style="opacity:0.004" fill="#f1b21b" d="M 286.5,922.5 C 285.833,923.167 285.833,923.167 286.5,922.5 Z"/></g>
<g><path style="opacity:0.008" fill="#f4b41b" d="M 281.5,923.5 C 282.833,924.167 282.833,924.167 281.5,923.5 Z"/></g>
<g><path style="opacity:0.004" fill="#f7b61c" d="M 273.5,924.5 C 274.833,925.167 274.833,925.167 273.5,924.5 Z"/></g>
<g><path style="opacity:0.004" fill="#f7b71e" d="M 275.5,924.5 C 276.833,925.167 276.833,925.167 275.5,924.5 Z"/></g>
<g><path style="opacity:0.004" fill="#f9b61c" d="M 267.5,925.5 C 268.833,926.167 268.833,926.167 267.5,925.5 Z"/></g>
<g><path style="opacity:0.004" fill="#f9b71c" d="M 245.5,926.5 C 246.833,927.167 246.833,927.167 245.5,926.5 Z"/></g>
<g><path style="opacity:0.004" fill="#f8b61c" d="M 250.5,927.5 C 251.946,926.387 253.613,926.22 255.5,927C 253.866,927.494 252.199,927.66 250.5,927.5 Z"/></g>
<g><path style="opacity:0.004" fill="#fdca20" d="M 8.5,928.5 C 9.83333,929.167 9.83333,929.167 8.5,928.5 Z"/></g>
<g><path style="opacity:0.004" fill="#fabc1e" d="M 215.5,932.5 C 216.833,933.167 216.833,933.167 215.5,932.5 Z"/></g>
<g><path style="opacity:0.004" fill="#febd1d" d="M 196.5,939.5 C 197.833,940.167 197.833,940.167 196.5,939.5 Z"/></g>
<g><path style="opacity:0.004" fill="#fbbb1c" d="M 193.5,940.5 C 194.833,941.167 194.833,941.167 193.5,940.5 Z"/></g>
<g><path style="opacity:0.008" fill="#fcb91c" d="M 189.5,943.5 C 189.897,942.475 190.563,942.308 191.5,943C 190.906,943.464 190.239,943.631 189.5,943.5 Z"/></g>
<g><path style="opacity:0.008" fill="#febd1e" d="M 180.5,947.5 C 181.833,948.167 181.833,948.167 180.5,947.5 Z"/></g>
<g><path style="opacity:0.016" fill="#fbbc18" d="M 174.5,950.5 C 175.833,951.167 175.833,951.167 174.5,950.5 Z"/></g>
<g><path style="opacity:0.008" fill="#fdca21" d="M 1.5,954.5 C 2.52502,954.897 2.69169,955.563 2,956.5C 1.53566,955.906 1.36899,955.239 1.5,954.5 Z"/></g>
<g><path style="opacity:0.004" fill="#fdc920" d="M 1.5,957.5 C 2.83333,958.167 2.83333,958.167 1.5,957.5 Z"/></g>
<g><path style="opacity:0.004" fill="#f9b81c" d="M 165.5,958.5 C 166.833,959.167 166.833,959.167 165.5,958.5 Z"/></g>
<g><path style="opacity:0.008" fill="#fec920" d="M 1.5,959.5 C 2.83333,960.167 2.83333,960.167 1.5,959.5 Z"/></g>
<g><path style="opacity:0.004" fill="#fec71e" d="M 2.5,963.5 C 3.83333,964.167 3.83333,964.167 2.5,963.5 Z"/></g>
<g><path style="opacity:1" fill="#fda90f" d="M 168.5,953.5 C 157.167,962.833 145.833,972.167 134.5,981.5C 126.462,987.179 118.462,992.846 110.5,998.5C 100.692,1003.74 90.6922,1008.41 80.5,1012.5C 68.1551,1015.1 55.8218,1015.1 43.5,1012.5C 43.5,1011.83 43.1667,1011.5 42.5,1011.5C 42.7352,1010.9 43.2352,1010.57 44,1010.5C 59.8583,1013.97 75.3583,1012.8 90.5,1007C 99.0928,1002.9 107.426,998.237 115.5,993C 133.226,979.815 150.893,966.648 168.5,953.5 Z"/></g>
<g><path style="opacity:0.004" fill="#fbb71c" d="M 134.5,981.5 C 135.525,981.897 135.692,982.563 135,983.5C 134.536,982.906 134.369,982.239 134.5,981.5 Z"/></g>
<g><path style="opacity:0.008" fill="#f9c21f" d="M 8.5,982.5 C 7.83333,983.167 7.83333,983.167 8.5,982.5 Z"/></g>
<g><path style="opacity:0.008" fill="#fdc31f" d="M 9.5,986.5 C 10.8333,987.167 10.8333,987.167 9.5,986.5 Z"/></g>
<g><path style="opacity:0.004" fill="#fbc41f" d="M 13.5,990.5 C 12.8333,991.167 12.8333,991.167 13.5,990.5 Z"/></g>
<g><path style="opacity:0.004" fill="#fcba1d" d="M 118.5,993.5 C 119.833,994.167 119.833,994.167 118.5,993.5 Z"/></g>
<g><path style="opacity:0.01" fill="#fdc321" d="M 16.5,994.5 C 16.5,995.167 16.5,995.833 16.5,996.5C 15.1667,995.833 15.1667,995.167 16.5,994.5 Z"/></g>
<g><path style="opacity:0.004" fill="#fdc221" d="M 16.5,996.5 C 17.1667,996.5 17.5,996.833 17.5,997.5C 17.1667,997.167 16.8333,996.833 16.5,996.5 Z"/></g>
<g><path style="opacity:0.004" fill="#fcc421" d="M 17.5,997.5 C 18.8333,998.167 18.8333,998.167 17.5,997.5 Z"/></g>
<g><path style="opacity:0.004" fill="#fabf1c" d="M 20.5,998.5 C 19.8333,999.167 19.8333,999.167 20.5,998.5 Z"/></g>
<g><path style="opacity:0.012" fill="#fdb21a" d="M 110.5,998.5 C 111.833,999.167 111.833,999.167 110.5,998.5 Z"/></g>
<g><path style="opacity:0.012" fill="#fdbf1e" d="M 23.5,1002.5 C 24.8333,1003.17 24.8333,1003.17 23.5,1002.5 Z"/></g>
<g><path style="opacity:0.004" fill="#feba1c" d="M 84.5,1011.5 C 85.8333,1012.17 85.8333,1012.17 84.5,1011.5 Z"/></g>
<g><path style="opacity:0.008" fill="#feba1e" d="M 43.5,1012.5 C 43.1034,1013.53 42.4368,1013.69 41.5,1013C 42.0944,1012.54 42.7611,1012.37 43.5,1012.5 Z"/></g>
<g><path style="opacity:0.004" fill="#fab91f" d="M 80.5,1012.5 C 81.8333,1013.17 81.8333,1013.17 80.5,1012.5 Z"/></g>
<g><path style="opacity:0.004" fill="#fcb91e" d="M 44.5,1013.5 C 45.8333,1014.17 45.8333,1014.17 44.5,1013.5 Z"/></g>
</svg>
